<svg xmlns="http://www.w3.org/2000/svg" xmlns:xlink="http://www.w3.org/1999/xlink" width="1200" zoomAndPan="magnify" viewBox="0 0 900 299.999988" height="400" preserveAspectRatio="xMidYMid meet" version="1.0"><defs><g/></defs><g fill="#682ad5" fill-opacity="1"><g transform="translate(39.861994, 189.08332)"><g><path d="M 22.625 4.5 C 20.519531 4.5 18.742188 4 17.296875 3 C 15.859375 2 15.140625 0.222656 15.140625 -2.328125 C 15.140625 -4.429688 16.273438 -7.09375 18.546875 -10.3125 C 20.828125 -13.53125 23.65625 -16.882812 27.03125 -20.375 C 30.414062 -23.875 33.828125 -27.285156 37.265625 -30.609375 C 40.703125 -33.941406 43.554688 -36.851562 45.828125 -39.34375 C 48.109375 -41.84375 49.25 -43.648438 49.25 -44.765625 C 49.25 -45.203125 49.082031 -45.476562 48.75 -45.59375 C 43.644531 -43.257812 38.648438 -40.734375 33.765625 -38.015625 C 28.890625 -35.296875 24.507812 -32.742188 20.625 -30.359375 C 16.75 -27.972656 13.753906 -26.0625 11.640625 -24.625 C 11.085938 -23.957031 10.5625 -23.265625 10.0625 -22.546875 C 9.5625 -21.828125 9.09375 -21.1875 8.65625 -20.625 C 6.875 -18.1875 4.539062 -15.609375 1.65625 -12.890625 C -1.21875 -10.171875 -4.347656 -7.59375 -7.734375 -5.15625 C -11.117188 -2.71875 -14.585938 -0.75 -18.140625 0.75 C -21.691406 2.25 -25.019531 3 -28.125 3 C -28.457031 3 -28.84375 2.96875 -29.28125 2.90625 C -29.726562 2.851562 -29.953125 2.71875 -29.953125 2.5 C -29.953125 2.269531 -29.726562 1.988281 -29.28125 1.65625 C -24.175781 -2.332031 -18.40625 -7.320312 -11.96875 -13.3125 C -5.539062 -19.300781 1.25 -25.875 8.40625 -33.03125 C 15.5625 -40.1875 22.769531 -47.453125 30.03125 -54.828125 C 37.300781 -62.203125 44.425781 -69.300781 51.40625 -76.125 C 58.394531 -82.945312 64.96875 -89.070312 71.125 -94.5 C 77.28125 -99.9375 82.769531 -104.234375 87.59375 -107.390625 C 92.425781 -110.554688 96.285156 -112.140625 99.171875 -112.140625 C 101.609375 -112.140625 102.828125 -110.976562 102.828125 -108.65625 C 102.828125 -105.882812 101.050781 -101.832031 97.5 -96.5 C 93.957031 -91.175781 88.742188 -85.160156 81.859375 -78.453125 C 74.984375 -71.742188 66.523438 -64.863281 56.484375 -57.8125 C 46.453125 -50.769531 35 -44.144531 22.125 -37.9375 L 14.46875 -28.28125 C 17.46875 -30.164062 21.488281 -32.578125 26.53125 -35.515625 C 31.582031 -38.460938 37.070312 -41.378906 43 -44.265625 C 48.9375 -47.148438 54.816406 -49.585938 60.640625 -51.578125 C 66.472656 -53.578125 71.71875 -54.578125 76.375 -54.578125 C 79.476562 -54.578125 81.722656 -53.882812 83.109375 -52.5 C 84.492188 -51.113281 85.1875 -49.644531 85.1875 -48.09375 C 85.1875 -46.757812 84.742188 -45.5625 83.859375 -44.5 C 82.972656 -43.445312 81.753906 -42.921875 80.203125 -42.921875 C 78.867188 -42.921875 77.867188 -43.28125 77.203125 -44 C 76.535156 -44.726562 76.203125 -45.535156 76.203125 -46.421875 C 76.203125 -47.421875 76.617188 -48.421875 77.453125 -49.421875 C 78.285156 -50.421875 79.535156 -51.03125 81.203125 -51.25 C 81.203125 -52.132812 80.585938 -52.710938 79.359375 -52.984375 C 78.140625 -53.265625 77.253906 -53.40625 76.703125 -53.40625 C 72.929688 -53.40625 68.742188 -52.738281 64.140625 -51.40625 C 59.535156 -50.082031 54.847656 -48.363281 50.078125 -46.25 C 52.523438 -45.363281 53.75 -43.867188 53.75 -41.765625 C 53.75 -39.546875 52.691406 -36.882812 50.578125 -33.78125 C 48.472656 -30.675781 45.867188 -27.398438 42.765625 -23.953125 C 39.660156 -20.515625 36.550781 -17.160156 33.4375 -13.890625 C 30.332031 -10.617188 27.726562 -7.679688 25.625 -5.078125 C 23.519531 -2.472656 22.46875 -0.503906 22.46875 0.828125 C 22.46875 2.046875 23.296875 2.65625 24.953125 2.65625 C 26.503906 2.65625 28.28125 2.238281 30.28125 1.40625 C 32.28125 0.582031 33.445312 0.113281 33.78125 0 C 37.769531 -2.101562 42.703125 -5.097656 48.578125 -8.984375 C 54.460938 -12.867188 61.007812 -17.195312 68.21875 -21.96875 L 72.046875 -24.453125 L 72.71875 -23.125 C 65.164062 -18.132812 58.144531 -13.445312 51.65625 -9.0625 C 45.175781 -4.6875 39.492188 -1.222656 34.609375 1.328125 C 33.171875 2.109375 31.34375 2.832031 29.125 3.5 C 26.90625 4.164062 24.738281 4.5 22.625 4.5 Z M 23.953125 -40.265625 C 38.597656 -47.921875 50.859375 -55.488281 60.734375 -62.96875 C 70.609375 -70.457031 78.484375 -77.390625 84.359375 -83.765625 C 90.234375 -90.148438 94.445312 -95.5625 97 -100 C 99.550781 -104.4375 100.828125 -107.488281 100.828125 -109.15625 C 100.828125 -110.039062 100.550781 -110.484375 100 -110.484375 C 97.113281 -110.484375 93.453125 -109.015625 89.015625 -106.078125 C 84.578125 -103.140625 79.613281 -99.203125 74.125 -94.265625 C 68.632812 -89.328125 62.945312 -83.804688 57.0625 -77.703125 C 51.1875 -71.597656 45.421875 -65.300781 39.765625 -58.8125 C 34.109375 -52.320312 28.835938 -46.140625 23.953125 -40.265625 Z M 23.953125 -40.265625 "/></g></g></g><g fill="#682ad5" fill-opacity="1"><g transform="translate(111.071594, 189.08332)"><g><path d="M -6.15625 3.15625 C -9.707031 3.15625 -11.484375 1.101562 -11.484375 -3 C -11.484375 -5.65625 -10.566406 -8.894531 -8.734375 -12.71875 C -6.898438 -16.550781 -4.15625 -20.488281 -0.5 -24.53125 C 3.15625 -28.582031 7.703125 -32.351562 13.140625 -35.84375 C 18.578125 -39.34375 24.957031 -42.175781 32.28125 -44.34375 C 39.601562 -46.507812 47.8125 -47.59375 56.90625 -47.59375 C 58.125 -47.59375 59.398438 -47.5625 60.734375 -47.5 C 62.066406 -47.445312 63.507812 -47.421875 65.0625 -47.421875 C 66.945312 -47.421875 68.941406 -47.472656 71.046875 -47.578125 C 73.148438 -47.691406 75.425781 -47.914062 77.875 -48.25 L 78.203125 -47.75 C 75.867188 -45.757812 72.875 -42.929688 69.21875 -39.265625 C 65.5625 -35.609375 61.484375 -31.503906 56.984375 -26.953125 C 52.492188 -22.410156 47.753906 -17.695312 42.765625 -12.8125 C 37.210938 -7.269531 34.4375 -3.332031 34.4375 -1 C 34.4375 0 35.046875 0.5 36.265625 0.5 C 37.378906 0.5 38.960938 0.0820312 41.015625 -0.75 C 43.066406 -1.582031 45.535156 -2.882812 48.421875 -4.65625 C 52.304688 -7.207031 56.828125 -10.203125 61.984375 -13.640625 C 67.140625 -17.078125 72.601562 -20.679688 78.375 -24.453125 L 79.03125 -23.125 C 73.269531 -19.351562 67.863281 -15.75 62.8125 -12.3125 C 57.757812 -8.875 53.128906 -5.820312 48.921875 -3.15625 C 46.035156 -1.382812 43.234375 -0.03125 40.515625 0.90625 C 37.796875 1.851562 35.4375 2.328125 33.4375 2.328125 C 29.113281 2.328125 26.953125 0.664062 26.953125 -2.65625 C 26.953125 -4.207031 27.5625 -6.148438 28.78125 -8.484375 C 30 -10.816406 31.941406 -13.425781 34.609375 -16.3125 L 39.265625 -21.296875 C 35.710938 -18.628906 31.828125 -15.878906 27.609375 -13.046875 C 23.398438 -10.222656 19.210938 -7.59375 15.046875 -5.15625 C 10.890625 -2.71875 6.953125 -0.722656 3.234375 0.828125 C -0.472656 2.378906 -3.601562 3.15625 -6.15625 3.15625 Z M -4.328125 1.328125 C -1.992188 1.328125 1.222656 0.359375 5.328125 -1.578125 C 9.429688 -3.523438 13.867188 -6.019531 18.640625 -9.0625 C 23.410156 -12.113281 28.148438 -15.273438 32.859375 -18.546875 C 37.578125 -21.828125 41.710938 -24.796875 45.265625 -27.453125 C 48.140625 -30.335938 51.046875 -33.25 53.984375 -36.1875 C 56.929688 -39.125 59.847656 -42.035156 62.734375 -44.921875 C 62.734375 -45.035156 62.757812 -45.117188 62.8125 -45.171875 C 62.863281 -45.234375 62.890625 -45.316406 62.890625 -45.421875 C 62.890625 -45.867188 62.554688 -46.09375 61.890625 -46.09375 L 55.40625 -46.09375 C 51.519531 -46.09375 47.300781 -45.175781 42.75 -43.34375 C 38.207031 -41.507812 33.632812 -39.066406 29.03125 -36.015625 C 24.425781 -32.972656 20.015625 -29.675781 15.796875 -26.125 C 11.585938 -22.570312 7.847656 -19.078125 4.578125 -15.640625 C 1.304688 -12.203125 -1.296875 -9.09375 -3.234375 -6.3125 C -5.179688 -3.539062 -6.15625 -1.492188 -6.15625 -0.171875 C -6.15625 0.828125 -5.546875 1.328125 -4.328125 1.328125 Z M -4.328125 1.328125 "/></g></g></g><g fill="#682ad5" fill-opacity="1"><g transform="translate(188.603546, 189.08332)"><g><path d="M 76.546875 4.828125 C 74.765625 4.828125 73.289062 4.132812 72.125 2.75 C 70.96875 1.363281 70.390625 -0.601562 70.390625 -3.15625 C 70.390625 -5.039062 71.332031 -7.257812 73.21875 -9.8125 C 75.101562 -12.363281 77.539062 -15.082031 80.53125 -17.96875 C 83.53125 -20.851562 86.691406 -23.707031 90.015625 -26.53125 C 93.347656 -29.363281 96.507812 -32.054688 99.5 -34.609375 C 102.5 -37.160156 104.941406 -39.347656 106.828125 -41.171875 C 108.710938 -43.003906 109.65625 -44.3125 109.65625 -45.09375 C 109.65625 -45.425781 109.375 -45.59375 108.8125 -45.59375 C 107.039062 -45.59375 104.378906 -44.734375 100.828125 -43.015625 C 97.285156 -41.296875 93.265625 -39.046875 88.765625 -36.265625 C 84.273438 -33.492188 79.671875 -30.5 74.953125 -27.28125 C 70.242188 -24.070312 65.753906 -20.941406 61.484375 -17.890625 C 57.210938 -14.835938 53.523438 -12.144531 50.421875 -9.8125 L 38.265625 2.5 C 35.492188 2.5 32.691406 2.582031 29.859375 2.75 C 27.035156 2.914062 24.789062 3.109375 23.125 3.328125 L 22.625 2.328125 C 24.40625 0.992188 26.847656 -0.914062 29.953125 -3.40625 C 33.054688 -5.90625 36.492188 -8.734375 40.265625 -11.890625 C 44.035156 -15.054688 47.78125 -18.300781 51.5 -21.625 C 55.21875 -24.957031 58.65625 -28.148438 61.8125 -31.203125 C 64.976562 -34.253906 67.53125 -36.914062 69.46875 -39.1875 C 71.40625 -41.457031 72.375 -43.09375 72.375 -44.09375 C 72.375 -44.757812 71.875 -45.09375 70.875 -45.09375 C 70.21875 -45.09375 69.441406 -44.925781 68.546875 -44.59375 C 65.773438 -43.476562 62.363281 -41.753906 58.3125 -39.421875 C 54.269531 -37.097656 49.972656 -34.4375 45.421875 -31.4375 C 40.878906 -28.445312 36.390625 -25.398438 31.953125 -22.296875 C 27.515625 -19.191406 23.460938 -16.304688 19.796875 -13.640625 L 4 2.5 C 1.21875 2.5 -1.582031 2.582031 -4.40625 2.75 C -7.238281 2.914062 -9.484375 3.109375 -11.140625 3.328125 L -11.640625 2.328125 C -9.867188 0.992188 -7.429688 -0.914062 -4.328125 -3.40625 C -1.222656 -5.90625 2.1875 -8.765625 5.90625 -11.984375 C 9.625 -15.203125 13.367188 -18.5 17.140625 -21.875 C 20.910156 -25.257812 24.347656 -28.53125 27.453125 -31.6875 C 30.554688 -34.851562 33.078125 -37.65625 35.015625 -40.09375 C 36.960938 -42.539062 37.9375 -44.375 37.9375 -45.59375 C 37.9375 -46.144531 37.601562 -46.421875 36.9375 -46.421875 C 36.382812 -46.421875 35.082031 -45.78125 33.03125 -44.5 C 30.976562 -43.226562 28.507812 -41.617188 25.625 -39.671875 C 22.738281 -37.734375 19.851562 -35.765625 16.96875 -33.765625 C 14.082031 -31.773438 11.53125 -30.003906 9.3125 -28.453125 L 0 -22.125 L -1.171875 -23.125 L 8.984375 -29.953125 C 13.640625 -33.171875 18.128906 -36.25 22.453125 -39.1875 C 26.785156 -42.125 30.671875 -44.5625 34.109375 -46.5 C 37.546875 -48.445312 40.207031 -49.421875 42.09375 -49.421875 C 43.3125 -49.421875 44.144531 -49.085938 44.59375 -48.421875 C 45.039062 -47.753906 45.265625 -46.976562 45.265625 -46.09375 C 45.265625 -44.3125 43.738281 -41.367188 40.6875 -37.265625 C 37.632812 -33.160156 32.335938 -27.0625 24.796875 -18.96875 C 29.003906 -21.96875 33.546875 -25.128906 38.421875 -28.453125 C 43.304688 -31.773438 48.078125 -34.851562 52.734375 -37.6875 C 57.398438 -40.519531 61.617188 -42.847656 65.390625 -44.671875 C 69.160156 -46.503906 72.046875 -47.421875 74.046875 -47.421875 C 76.816406 -47.421875 78.203125 -45.921875 78.203125 -42.921875 C 78.203125 -41.929688 77.535156 -40.410156 76.203125 -38.359375 C 74.867188 -36.304688 72.59375 -33.503906 69.375 -29.953125 C 66.164062 -26.398438 61.734375 -21.6875 56.078125 -15.8125 C 60.285156 -18.800781 64.992188 -22.097656 70.203125 -25.703125 C 75.421875 -29.304688 80.632812 -32.769531 85.84375 -36.09375 C 91.0625 -39.425781 95.804688 -42.144531 100.078125 -44.25 C 104.347656 -46.363281 107.59375 -47.421875 109.8125 -47.421875 C 112.59375 -47.421875 113.984375 -46.144531 113.984375 -43.59375 C 113.984375 -40.375 112.707031 -37.015625 110.15625 -33.515625 C 107.601562 -30.023438 104.46875 -26.5625 100.75 -23.125 C 97.03125 -19.6875 93.285156 -16.441406 89.515625 -13.390625 C 85.742188 -10.335938 82.582031 -7.617188 80.03125 -5.234375 C 77.476562 -2.847656 76.203125 -1.046875 76.203125 0.171875 C 76.203125 1.941406 77.035156 2.828125 78.703125 2.828125 C 80.804688 2.828125 84.019531 1.582031 88.34375 -0.90625 C 92.675781 -3.40625 97.945312 -6.707031 104.15625 -10.8125 C 110.375 -14.914062 117.253906 -19.460938 124.796875 -24.453125 L 125.453125 -23.125 C 118.140625 -18.25 111.289062 -13.675781 104.90625 -9.40625 C 98.53125 -5.132812 92.925781 -1.695312 88.09375 0.90625 C 83.269531 3.519531 79.421875 4.828125 76.546875 4.828125 Z M 76.546875 4.828125 "/></g></g></g><g fill="#682ad5" fill-opacity="1"><g transform="translate(312.55484, 189.08332)"><g><path d="M 8.484375 4.828125 C 4.828125 4.828125 3 2.382812 3 -2.5 C 3 -5.15625 3.992188 -7.976562 5.984375 -10.96875 C 7.984375 -13.96875 10.535156 -16.992188 13.640625 -20.046875 C 16.742188 -23.097656 20.070312 -26.09375 23.625 -29.03125 C 27.175781 -31.96875 30.503906 -34.738281 33.609375 -37.34375 C 36.710938 -39.957031 39.265625 -42.289062 41.265625 -44.34375 C 43.265625 -46.394531 44.265625 -48.03125 44.265625 -49.25 C 44.265625 -49.800781 44.148438 -50.742188 43.921875 -52.078125 C 43.703125 -53.410156 43.484375 -54.851562 43.265625 -56.40625 C 42.046875 -54.96875 39.851562 -52.75 36.6875 -49.75 C 33.53125 -46.757812 29.007812 -42.960938 23.125 -38.359375 C 17.25 -33.753906 9.539062 -28.34375 0 -22.125 L -1.171875 -23.125 C 9.035156 -29.78125 17.160156 -35.460938 23.203125 -40.171875 C 29.253906 -44.890625 33.804688 -48.71875 36.859375 -51.65625 C 39.910156 -54.601562 41.988281 -56.742188 43.09375 -58.078125 L 43.09375 -61.234375 C 43.09375 -64.671875 44.007812 -67.191406 45.84375 -68.796875 C 47.675781 -70.410156 49.476562 -71.21875 51.25 -71.21875 C 53.582031 -71.21875 54.75 -70.21875 54.75 -68.21875 C 54.75 -66.445312 53.75 -64.753906 51.75 -63.140625 C 49.75 -61.535156 48.082031 -60.457031 46.75 -59.90625 C 45.863281 -59.457031 45.421875 -58.789062 45.421875 -57.90625 C 45.421875 -55.46875 45.671875 -53 46.171875 -50.5 C 46.671875 -48 46.921875 -45.472656 46.921875 -42.921875 C 46.921875 -39.710938 45.617188 -36.5 43.015625 -33.28125 C 40.410156 -30.0625 37.191406 -26.867188 33.359375 -23.703125 C 29.535156 -20.546875 25.679688 -17.523438 21.796875 -14.640625 C 17.910156 -11.753906 14.664062 -9.0625 12.0625 -6.5625 C 9.457031 -4.070312 8.15625 -1.828125 8.15625 0.171875 C 8.15625 1.941406 8.988281 2.828125 10.65625 2.828125 C 12.757812 2.828125 15.972656 1.582031 20.296875 -0.90625 C 24.617188 -3.40625 29.882812 -6.707031 36.09375 -10.8125 C 42.3125 -14.914062 49.191406 -19.460938 56.734375 -24.453125 L 57.40625 -23.125 C 50.082031 -18.25 43.226562 -13.675781 36.84375 -9.40625 C 30.46875 -5.132812 24.867188 -1.695312 20.046875 0.90625 C 15.222656 3.519531 11.367188 4.828125 8.484375 4.828125 Z M 8.484375 4.828125 "/></g></g></g><g fill="#682ad5" fill-opacity="1"><g transform="translate(368.457727, 189.08332)"><g><path d="M -7.828125 3.65625 C -9.597656 3.65625 -11.066406 3.179688 -12.234375 2.234375 C -13.398438 1.296875 -13.984375 -0.332031 -13.984375 -2.65625 C -13.984375 -3.65625 -13.566406 -5.097656 -12.734375 -6.984375 C -11.898438 -8.867188 -10.257812 -11.503906 -7.8125 -14.890625 C -5.375 -18.273438 -1.800781 -22.65625 2.90625 -28.03125 C 7.625 -33.414062 13.921875 -40.101562 21.796875 -48.09375 C 24.566406 -48.09375 27.363281 -48.203125 30.1875 -48.421875 C 33.019531 -48.640625 35.269531 -48.804688 36.9375 -48.921875 L 37.4375 -47.921875 C 35.332031 -46.367188 32.421875 -43.984375 28.703125 -40.765625 C 24.984375 -37.546875 21.015625 -33.9375 16.796875 -29.9375 C 12.585938 -25.945312 8.597656 -21.984375 4.828125 -18.046875 C 1.054688 -14.109375 -2.046875 -10.671875 -4.484375 -7.734375 C -6.929688 -4.796875 -8.15625 -2.71875 -8.15625 -1.5 C -8.15625 0.601562 -7.097656 1.65625 -4.984375 1.65625 C -3.097656 1.65625 -0.71875 0.9375 2.15625 -0.5 C 5.039062 -1.9375 7.539062 -3.320312 9.65625 -4.65625 L 27.28125 -16.3125 C 29.832031 -19.75 33.382812 -24.046875 37.9375 -29.203125 C 42.488281 -34.359375 48.476562 -40.65625 55.90625 -48.09375 C 58.675781 -48.09375 61.472656 -48.203125 64.296875 -48.421875 C 67.128906 -48.640625 69.378906 -48.804688 71.046875 -48.921875 L 71.546875 -47.921875 C 69.441406 -46.367188 66.53125 -43.984375 62.8125 -40.765625 C 59.09375 -37.546875 55.125 -33.9375 50.90625 -29.9375 C 46.695312 -25.945312 42.707031 -21.984375 38.9375 -18.046875 C 35.164062 -14.109375 32.054688 -10.671875 29.609375 -7.734375 C 27.171875 -4.796875 25.953125 -2.71875 25.953125 -1.5 C 25.953125 0.601562 27.007812 1.65625 29.125 1.65625 C 31.007812 1.65625 33.390625 0.9375 36.265625 -0.5 C 39.148438 -1.9375 41.648438 -3.320312 43.765625 -4.65625 C 47.640625 -7.207031 52.15625 -10.203125 57.3125 -13.640625 C 62.476562 -17.078125 67.945312 -20.679688 73.71875 -24.453125 L 74.375 -23.125 C 68.601562 -19.351562 63.191406 -15.75 58.140625 -12.3125 C 53.097656 -8.875 48.472656 -5.820312 44.265625 -3.15625 C 42.265625 -1.9375 39.488281 -0.5 35.9375 1.15625 C 32.382812 2.820312 29.171875 3.65625 26.296875 3.65625 C 24.515625 3.65625 23.039062 3.179688 21.875 2.234375 C 20.71875 1.296875 20.140625 -0.332031 20.140625 -2.65625 C 20.140625 -3.550781 20.441406 -4.773438 21.046875 -6.328125 C 21.660156 -7.878906 22.851562 -9.984375 24.625 -12.640625 C 21.957031 -10.867188 19.429688 -9.175781 17.046875 -7.5625 C 14.671875 -5.957031 12.375 -4.488281 10.15625 -3.15625 C 8.15625 -1.9375 5.378906 -0.5 1.828125 1.15625 C -1.722656 2.820312 -4.941406 3.65625 -7.828125 3.65625 Z M -7.828125 3.65625 "/></g></g></g><g fill="#682ad5" fill-opacity="1"><g transform="translate(441.331095, 189.08332)"><g><path d="M -4.15625 2.328125 C -6.707031 2.328125 -8.648438 1.71875 -9.984375 0.5 C -11.316406 -0.71875 -11.984375 -2.21875 -11.984375 -4 C -11.984375 -7.207031 -10.707031 -10.78125 -8.15625 -14.71875 C -5.601562 -18.65625 -2.25 -22.785156 1.90625 -27.109375 C 6.070312 -31.441406 10.625 -35.828125 15.5625 -40.265625 C 20.5 -44.703125 25.347656 -49.140625 30.109375 -53.578125 C 34.878906 -58.015625 39.148438 -62.226562 42.921875 -66.21875 C 46.253906 -69.769531 50.023438 -73.648438 54.234375 -77.859375 C 58.453125 -82.078125 62.832031 -86.238281 67.375 -90.34375 C 71.925781 -94.445312 76.363281 -98.191406 80.6875 -101.578125 C 85.019531 -104.960938 89.015625 -107.679688 92.671875 -109.734375 C 96.335938 -111.785156 99.390625 -112.8125 101.828125 -112.8125 C 104.265625 -112.8125 105.484375 -111.644531 105.484375 -109.3125 C 105.484375 -106.539062 103.738281 -102.519531 100.25 -97.25 C 96.757812 -91.988281 91.628906 -86.054688 84.859375 -79.453125 C 78.085938 -72.847656 69.820312 -66.023438 60.0625 -58.984375 C 50.300781 -51.941406 39.15625 -45.316406 26.625 -39.109375 C 18.96875 -30.335938 12.503906 -23.566406 7.234375 -18.796875 C 1.960938 -14.023438 -2.023438 -10.390625 -4.734375 -7.890625 C -7.453125 -5.398438 -8.8125 -3.269531 -8.8125 -1.5 C -8.8125 -0.0507812 -7.375 0.671875 -4.5 0.671875 C -2.71875 0.671875 -0.441406 0.226562 2.328125 -0.65625 C 5.097656 -1.550781 8.316406 -3.050781 11.984375 -5.15625 C 13.867188 -6.269531 15.835938 -7.546875 17.890625 -8.984375 C 19.941406 -10.421875 22.128906 -11.863281 24.453125 -13.3125 L 41.9375 -24.953125 L 42.59375 -23.625 L 25.453125 -12.140625 C 20.796875 -9.035156 16.472656 -6.207031 12.484375 -3.65625 C 8.929688 -1.550781 5.765625 -0.03125 2.984375 0.90625 C 0.210938 1.851562 -2.164062 2.328125 -4.15625 2.328125 Z M 29.453125 -42.421875 C 42.648438 -49.640625 53.878906 -56.710938 63.140625 -63.640625 C 72.398438 -70.578125 79.914062 -77.066406 85.6875 -83.109375 C 91.457031 -89.160156 95.703125 -94.375 98.421875 -98.75 C 101.140625 -103.132812 102.5 -106.328125 102.5 -108.328125 C 102.5 -109.765625 101.890625 -110.484375 100.671875 -110.484375 C 98.890625 -110.484375 96.332031 -109.507812 93 -107.5625 C 89.675781 -105.625 85.90625 -102.988281 81.6875 -99.65625 C 77.476562 -96.332031 73.039062 -92.535156 68.375 -88.265625 C 63.71875 -83.992188 59.117188 -79.472656 54.578125 -74.703125 C 49.921875 -68.160156 45.484375 -62.226562 41.265625 -56.90625 C 37.046875 -51.582031 33.109375 -46.753906 29.453125 -42.421875 Z M 29.453125 -42.421875 "/></g></g></g><g fill="#682ad5" fill-opacity="1"><g transform="translate(481.59448, 189.08332)"><g><path d="M 27.125 4.828125 C 25.34375 4.828125 23.867188 4.132812 22.703125 2.75 C 21.546875 1.363281 20.96875 -0.601562 20.96875 -3.15625 C 20.96875 -5.039062 21.910156 -7.257812 23.796875 -9.8125 C 25.679688 -12.363281 28.117188 -15.082031 31.109375 -17.96875 C 34.109375 -20.851562 37.269531 -23.707031 40.59375 -26.53125 C 43.925781 -29.363281 47.085938 -32.054688 50.078125 -34.609375 C 53.078125 -37.160156 55.519531 -39.347656 57.40625 -41.171875 C 59.289062 -43.003906 60.234375 -44.3125 60.234375 -45.09375 C 60.234375 -45.425781 59.957031 -45.59375 59.40625 -45.59375 C 57.625 -45.59375 55.039062 -44.84375 51.65625 -43.34375 C 48.28125 -41.84375 44.457031 -39.875 40.1875 -37.4375 C 35.914062 -35 31.476562 -32.335938 26.875 -29.453125 C 22.269531 -26.566406 17.832031 -23.707031 13.5625 -20.875 C 9.289062 -18.050781 5.546875 -15.53125 2.328125 -13.3125 C -0.441406 -10.644531 -3.601562 -8.0625 -7.15625 -5.5625 C -10.707031 -3.070312 -14.285156 -1.023438 -17.890625 0.578125 C -21.492188 2.191406 -24.90625 3 -28.125 3 C -28.457031 3 -28.84375 2.96875 -29.28125 2.90625 C -29.726562 2.851562 -29.953125 2.71875 -29.953125 2.5 C -29.953125 2.269531 -29.726562 1.988281 -29.28125 1.65625 C -24.175781 -2.332031 -18.40625 -7.320312 -11.96875 -13.3125 C -5.539062 -19.300781 1.25 -25.875 8.40625 -33.03125 C 15.5625 -40.1875 22.769531 -47.453125 30.03125 -54.828125 C 37.300781 -62.203125 44.425781 -69.300781 51.40625 -76.125 C 58.394531 -82.945312 64.96875 -89.070312 71.125 -94.5 C 77.28125 -99.9375 82.769531 -104.234375 87.59375 -107.390625 C 92.425781 -110.554688 96.285156 -112.140625 99.171875 -112.140625 C 101.609375 -112.140625 102.828125 -110.976562 102.828125 -108.65625 C 102.828125 -105.882812 101.050781 -101.832031 97.5 -96.5 C 93.957031 -91.175781 88.742188 -85.160156 81.859375 -78.453125 C 74.984375 -71.742188 66.523438 -64.863281 56.484375 -57.8125 C 46.453125 -50.769531 35 -44.144531 22.125 -37.9375 C 16.582031 -31.164062 12.09375 -25.394531 8.65625 -20.625 C 8.320312 -20.1875 8.015625 -19.769531 7.734375 -19.375 C 7.460938 -18.988281 7.101562 -18.578125 6.65625 -18.140625 C 10.875 -20.910156 15.585938 -23.988281 20.796875 -27.375 C 26.015625 -30.757812 31.253906 -33.972656 36.515625 -37.015625 C 41.785156 -40.066406 46.53125 -42.5625 50.75 -44.5 C 54.96875 -46.445312 58.1875 -47.421875 60.40625 -47.421875 C 63.175781 -47.421875 64.5625 -46.144531 64.5625 -43.59375 C 64.5625 -40.375 63.285156 -37.015625 60.734375 -33.515625 C 58.179688 -30.023438 55.046875 -26.5625 51.328125 -23.125 C 47.609375 -19.6875 43.863281 -16.441406 40.09375 -13.390625 C 36.320312 -10.335938 33.160156 -7.617188 30.609375 -5.234375 C 28.054688 -2.847656 26.78125 -1.046875 26.78125 0.171875 C 26.78125 1.941406 27.613281 2.828125 29.28125 2.828125 C 31.394531 2.828125 34.613281 1.582031 38.9375 -0.90625 C 43.257812 -3.40625 48.523438 -6.707031 54.734375 -10.8125 C 60.953125 -14.914062 67.832031 -19.460938 75.375 -24.453125 L 76.046875 -23.125 C 68.722656 -18.25 61.867188 -13.675781 55.484375 -9.40625 C 49.109375 -5.132812 43.507812 -1.695312 38.6875 0.90625 C 33.863281 3.519531 30.007812 4.828125 27.125 4.828125 Z M 23.953125 -40.265625 C 38.597656 -47.921875 50.859375 -55.488281 60.734375 -62.96875 C 70.609375 -70.457031 78.484375 -77.390625 84.359375 -83.765625 C 90.234375 -90.148438 94.445312 -95.5625 97 -100 C 99.550781 -104.4375 100.828125 -107.488281 100.828125 -109.15625 C 100.828125 -110.039062 100.550781 -110.484375 100 -110.484375 C 97.113281 -110.484375 93.453125 -109.015625 89.015625 -106.078125 C 84.578125 -103.140625 79.613281 -99.203125 74.125 -94.265625 C 68.632812 -89.328125 62.945312 -83.804688 57.0625 -77.703125 C 51.1875 -71.597656 45.421875 -65.300781 39.765625 -58.8125 C 34.109375 -52.320312 28.835938 -46.140625 23.953125 -40.265625 Z M 23.953125 -40.265625 "/></g></g></g><g fill="#682ad5" fill-opacity="1"><g transform="translate(556.131615, 189.08332)"><g><path d="M -6.15625 3.15625 C -9.707031 3.15625 -11.484375 1.101562 -11.484375 -3 C -11.484375 -5.65625 -10.566406 -8.894531 -8.734375 -12.71875 C -6.898438 -16.550781 -4.15625 -20.488281 -0.5 -24.53125 C 3.15625 -28.582031 7.703125 -32.351562 13.140625 -35.84375 C 18.578125 -39.34375 24.957031 -42.175781 32.28125 -44.34375 C 39.601562 -46.507812 47.8125 -47.59375 56.90625 -47.59375 C 58.125 -47.59375 59.398438 -47.5625 60.734375 -47.5 C 62.066406 -47.445312 63.507812 -47.421875 65.0625 -47.421875 C 66.945312 -47.421875 68.941406 -47.472656 71.046875 -47.578125 C 73.148438 -47.691406 75.425781 -47.914062 77.875 -48.25 L 78.203125 -47.75 C 75.867188 -45.757812 72.875 -42.929688 69.21875 -39.265625 C 65.5625 -35.609375 61.484375 -31.503906 56.984375 -26.953125 C 52.492188 -22.410156 47.753906 -17.695312 42.765625 -12.8125 C 37.210938 -7.269531 34.4375 -3.332031 34.4375 -1 C 34.4375 0 35.046875 0.5 36.265625 0.5 C 37.378906 0.5 38.960938 0.0820312 41.015625 -0.75 C 43.066406 -1.582031 45.535156 -2.882812 48.421875 -4.65625 C 52.304688 -7.207031 56.828125 -10.203125 61.984375 -13.640625 C 67.140625 -17.078125 72.601562 -20.679688 78.375 -24.453125 L 79.03125 -23.125 C 73.269531 -19.351562 67.863281 -15.75 62.8125 -12.3125 C 57.757812 -8.875 53.128906 -5.820312 48.921875 -3.15625 C 46.035156 -1.382812 43.234375 -0.03125 40.515625 0.90625 C 37.796875 1.851562 35.4375 2.328125 33.4375 2.328125 C 29.113281 2.328125 26.953125 0.664062 26.953125 -2.65625 C 26.953125 -4.207031 27.5625 -6.148438 28.78125 -8.484375 C 30 -10.816406 31.941406 -13.425781 34.609375 -16.3125 L 39.265625 -21.296875 C 35.710938 -18.628906 31.828125 -15.878906 27.609375 -13.046875 C 23.398438 -10.222656 19.210938 -7.59375 15.046875 -5.15625 C 10.890625 -2.71875 6.953125 -0.722656 3.234375 0.828125 C -0.472656 2.378906 -3.601562 3.15625 -6.15625 3.15625 Z M -4.328125 1.328125 C -1.992188 1.328125 1.222656 0.359375 5.328125 -1.578125 C 9.429688 -3.523438 13.867188 -6.019531 18.640625 -9.0625 C 23.410156 -12.113281 28.148438 -15.273438 32.859375 -18.546875 C 37.578125 -21.828125 41.710938 -24.796875 45.265625 -27.453125 C 48.140625 -30.335938 51.046875 -33.25 53.984375 -36.1875 C 56.929688 -39.125 59.847656 -42.035156 62.734375 -44.921875 C 62.734375 -45.035156 62.757812 -45.117188 62.8125 -45.171875 C 62.863281 -45.234375 62.890625 -45.316406 62.890625 -45.421875 C 62.890625 -45.867188 62.554688 -46.09375 61.890625 -46.09375 L 55.40625 -46.09375 C 51.519531 -46.09375 47.300781 -45.175781 42.75 -43.34375 C 38.207031 -41.507812 33.632812 -39.066406 29.03125 -36.015625 C 24.425781 -32.972656 20.015625 -29.675781 15.796875 -26.125 C 11.585938 -22.570312 7.847656 -19.078125 4.578125 -15.640625 C 1.304688 -12.203125 -1.296875 -9.09375 -3.234375 -6.3125 C -5.179688 -3.539062 -6.15625 -1.492188 -6.15625 -0.171875 C -6.15625 0.828125 -5.546875 1.328125 -4.328125 1.328125 Z M -4.328125 1.328125 "/></g></g></g><g fill="#682ad5" fill-opacity="1"><g transform="translate(633.663567, 189.08332)"><g><path d="M 0.328125 4 C -6.210938 4 -10.84375 2.613281 -13.5625 -0.15625 C -16.28125 -2.9375 -17.640625 -6.046875 -17.640625 -9.484375 C -17.640625 -12.253906 -16.972656 -14.941406 -15.640625 -17.546875 C -14.304688 -20.160156 -12.53125 -22.328125 -10.3125 -24.046875 C -8.09375 -25.765625 -5.707031 -26.625 -3.15625 -26.625 C -0.5 -26.625 1.492188 -25.957031 2.828125 -24.625 C 8.703125 -28.175781 14.109375 -31.921875 19.046875 -35.859375 C 23.984375 -39.796875 28.3125 -43.535156 32.03125 -47.078125 C 35.75 -50.628906 38.601562 -53.570312 40.59375 -55.90625 C 41.375 -56.6875 42.316406 -57.9375 43.421875 -59.65625 C 44.535156 -61.375 45.476562 -62.898438 46.25 -64.234375 L 52.25 -61.734375 C 49.582031 -61.179688 47.722656 -59.679688 46.671875 -57.234375 C 45.617188 -54.796875 44.925781 -51.742188 44.59375 -48.078125 C 44.257812 -44.421875 43.785156 -40.457031 43.171875 -36.1875 C 42.566406 -31.914062 41.429688 -27.5625 39.765625 -23.125 C 38.097656 -18.6875 35.4375 -14.472656 31.78125 -10.484375 C 28.125 -6.492188 22.96875 -3.054688 16.3125 -0.171875 C 19.1875 -0.835938 23.394531 -2.332031 28.9375 -4.65625 C 34.488281 -6.988281 40.316406 -10.207031 46.421875 -14.3125 L 61.734375 -24.453125 L 62.390625 -23.125 L 47.25 -12.984375 C 39.488281 -7.878906 31.554688 -3.769531 23.453125 -0.65625 C 15.359375 2.445312 7.648438 4 0.328125 4 Z M -5.65625 0.5 C 0.332031 0.5 5.738281 -1.078125 10.5625 -4.234375 C 15.382812 -7.398438 19.625 -11.421875 23.28125 -16.296875 C 26.945312 -21.179688 30.082031 -26.257812 32.6875 -31.53125 C 35.300781 -36.800781 37.382812 -41.625 38.9375 -46 C 40.488281 -50.382812 41.539062 -53.578125 42.09375 -55.578125 C 35 -48.035156 28.148438 -41.628906 21.546875 -36.359375 C 14.941406 -31.085938 9.035156 -26.734375 3.828125 -23.296875 C 4.160156 -22.847656 4.328125 -22.289062 4.328125 -21.625 C 4.328125 -19.738281 3.519531 -18.046875 1.90625 -16.546875 C 0.300781 -15.054688 -1.660156 -13.921875 -3.984375 -13.140625 C -6.316406 -12.367188 -8.648438 -11.984375 -10.984375 -11.984375 C -11.753906 -11.984375 -12.523438 -12.035156 -13.296875 -12.140625 C -14.078125 -12.253906 -14.800781 -12.421875 -15.46875 -12.640625 C -15.800781 -11.535156 -15.96875 -10.484375 -15.96875 -9.484375 C -15.96875 -7.148438 -15.328125 -5.234375 -14.046875 -3.734375 C -12.773438 -2.242188 -11.335938 -1.164062 -9.734375 -0.5 C -8.128906 0.164062 -6.769531 0.5 -5.65625 0.5 Z M -5.65625 0.5 "/></g></g></g><g fill="#682ad5" fill-opacity="1"><g transform="translate(694.557774, 189.08332)"><g><path d="M -6.15625 3.15625 C -9.707031 3.15625 -11.484375 1.101562 -11.484375 -3 C -11.484375 -5.65625 -10.566406 -8.894531 -8.734375 -12.71875 C -6.898438 -16.550781 -4.15625 -20.488281 -0.5 -24.53125 C 3.15625 -28.582031 7.703125 -32.351562 13.140625 -35.84375 C 18.578125 -39.34375 24.957031 -42.175781 32.28125 -44.34375 C 39.601562 -46.507812 47.8125 -47.59375 56.90625 -47.59375 C 58.125 -47.59375 59.398438 -47.5625 60.734375 -47.5 C 62.066406 -47.445312 63.507812 -47.421875 65.0625 -47.421875 C 66.945312 -47.421875 68.941406 -47.472656 71.046875 -47.578125 C 73.148438 -47.691406 75.425781 -47.914062 77.875 -48.25 L 78.203125 -47.75 C 75.867188 -45.757812 72.875 -42.929688 69.21875 -39.265625 C 65.5625 -35.609375 61.484375 -31.503906 56.984375 -26.953125 C 52.492188 -22.410156 47.753906 -17.695312 42.765625 -12.8125 C 37.210938 -7.269531 34.4375 -3.332031 34.4375 -1 C 34.4375 0 35.046875 0.5 36.265625 0.5 C 37.378906 0.5 38.960938 0.0820312 41.015625 -0.75 C 43.066406 -1.582031 45.535156 -2.882812 48.421875 -4.65625 C 52.304688 -7.207031 56.828125 -10.203125 61.984375 -13.640625 C 67.140625 -17.078125 72.601562 -20.679688 78.375 -24.453125 L 79.03125 -23.125 C 73.269531 -19.351562 67.863281 -15.75 62.8125 -12.3125 C 57.757812 -8.875 53.128906 -5.820312 48.921875 -3.15625 C 46.035156 -1.382812 43.234375 -0.03125 40.515625 0.90625 C 37.796875 1.851562 35.4375 2.328125 33.4375 2.328125 C 29.113281 2.328125 26.953125 0.664062 26.953125 -2.65625 C 26.953125 -4.207031 27.5625 -6.148438 28.78125 -8.484375 C 30 -10.816406 31.941406 -13.425781 34.609375 -16.3125 L 39.265625 -21.296875 C 35.710938 -18.628906 31.828125 -15.878906 27.609375 -13.046875 C 23.398438 -10.222656 19.210938 -7.59375 15.046875 -5.15625 C 10.890625 -2.71875 6.953125 -0.722656 3.234375 0.828125 C -0.472656 2.378906 -3.601562 3.15625 -6.15625 3.15625 Z M -4.328125 1.328125 C -1.992188 1.328125 1.222656 0.359375 5.328125 -1.578125 C 9.429688 -3.523438 13.867188 -6.019531 18.640625 -9.0625 C 23.410156 -12.113281 28.148438 -15.273438 32.859375 -18.546875 C 37.578125 -21.828125 41.710938 -24.796875 45.265625 -27.453125 C 48.140625 -30.335938 51.046875 -33.25 53.984375 -36.1875 C 56.929688 -39.125 59.847656 -42.035156 62.734375 -44.921875 C 62.734375 -45.035156 62.757812 -45.117188 62.8125 -45.171875 C 62.863281 -45.234375 62.890625 -45.316406 62.890625 -45.421875 C 62.890625 -45.867188 62.554688 -46.09375 61.890625 -46.09375 L 55.40625 -46.09375 C 51.519531 -46.09375 47.300781 -45.175781 42.75 -43.34375 C 38.207031 -41.507812 33.632812 -39.066406 29.03125 -36.015625 C 24.425781 -32.972656 20.015625 -29.675781 15.796875 -26.125 C 11.585938 -22.570312 7.847656 -19.078125 4.578125 -15.640625 C 1.304688 -12.203125 -1.296875 -9.09375 -3.234375 -6.3125 C -5.179688 -3.539062 -6.15625 -1.492188 -6.15625 -0.171875 C -6.15625 0.828125 -5.546875 1.328125 -4.328125 1.328125 Z M -4.328125 1.328125 "/></g></g></g><g fill="#682ad5" fill-opacity="1"><g transform="translate(772.089691, 189.08332)"><g><path d="M 40.59375 4.828125 C 38.820312 4.828125 37.351562 4.132812 36.1875 2.75 C 35.019531 1.363281 34.4375 -0.601562 34.4375 -3.15625 C 34.4375 -5.039062 35.378906 -7.257812 37.265625 -9.8125 C 39.148438 -12.363281 41.585938 -15.082031 44.578125 -17.96875 C 47.578125 -20.851562 50.738281 -23.707031 54.0625 -26.53125 C 57.394531 -29.363281 60.554688 -32.054688 63.546875 -34.609375 C 66.546875 -37.160156 68.988281 -39.347656 70.875 -41.171875 C 72.769531 -43.003906 73.71875 -44.3125 73.71875 -45.09375 C 73.71875 -45.425781 73.4375 -45.59375 72.875 -45.59375 C 70.882812 -45.59375 67.804688 -44.535156 63.640625 -42.421875 C 59.484375 -40.316406 54.828125 -37.628906 49.671875 -34.359375 C 44.515625 -31.085938 39.328125 -27.648438 34.109375 -24.046875 C 28.898438 -20.441406 24.1875 -17.085938 19.96875 -13.984375 C 15.53125 -9.210938 10.207031 -3.71875 4 2.5 C 1.21875 2.5 -1.582031 2.582031 -4.40625 2.75 C -7.238281 2.914062 -9.484375 3.109375 -11.140625 3.328125 L -11.640625 2.328125 C -9.867188 0.992188 -7.429688 -0.914062 -4.328125 -3.40625 C -1.222656 -5.90625 2.1875 -8.765625 5.90625 -11.984375 C 9.625 -15.203125 13.367188 -18.5 17.140625 -21.875 C 20.910156 -25.257812 24.347656 -28.53125 27.453125 -31.6875 C 30.554688 -34.851562 33.078125 -37.65625 35.015625 -40.09375 C 36.960938 -42.539062 37.9375 -44.375 37.9375 -45.59375 C 37.9375 -46.144531 37.601562 -46.421875 36.9375 -46.421875 C 36.382812 -46.421875 35.082031 -45.78125 33.03125 -44.5 C 30.976562 -43.226562 28.507812 -41.617188 25.625 -39.671875 C 22.738281 -37.734375 19.851562 -35.765625 16.96875 -33.765625 C 14.082031 -31.773438 11.53125 -30.003906 9.3125 -28.453125 L 0 -22.125 L -1.171875 -23.125 L 8.984375 -29.953125 C 13.640625 -33.171875 18.128906 -36.25 22.453125 -39.1875 C 26.785156 -42.125 30.671875 -44.5625 34.109375 -46.5 C 37.546875 -48.445312 40.207031 -49.421875 42.09375 -49.421875 C 43.3125 -49.421875 44.144531 -49.085938 44.59375 -48.421875 C 45.039062 -47.753906 45.265625 -46.976562 45.265625 -46.09375 C 45.265625 -44.3125 43.789062 -41.394531 40.84375 -37.34375 C 37.90625 -33.300781 32.664062 -27.285156 25.125 -19.296875 C 29.34375 -22.296875 33.863281 -25.429688 38.6875 -28.703125 C 43.507812 -31.972656 48.222656 -35.019531 52.828125 -37.84375 C 57.429688 -40.675781 61.585938 -42.976562 65.296875 -44.75 C 69.015625 -46.53125 71.875 -47.421875 73.875 -47.421875 C 76.644531 -47.421875 78.03125 -46.144531 78.03125 -43.59375 C 78.03125 -40.375 76.753906 -37.015625 74.203125 -33.515625 C 71.660156 -30.023438 68.53125 -26.5625 64.8125 -23.125 C 61.09375 -19.6875 57.347656 -16.441406 53.578125 -13.390625 C 49.804688 -10.335938 46.644531 -7.617188 44.09375 -5.234375 C 41.539062 -2.847656 40.265625 -1.046875 40.265625 0.171875 C 40.265625 1.941406 41.097656 2.828125 42.765625 2.828125 C 44.867188 2.828125 48.082031 1.582031 52.40625 -0.90625 C 56.738281 -3.40625 62.007812 -6.707031 68.21875 -10.8125 C 74.425781 -14.914062 81.304688 -19.460938 88.859375 -24.453125 L 89.515625 -23.125 C 82.191406 -18.25 75.34375 -13.675781 68.96875 -9.40625 C 62.59375 -5.132812 56.988281 -1.695312 52.15625 0.90625 C 47.332031 3.519531 43.476562 4.828125 40.59375 4.828125 Z M 40.59375 4.828125 "/></g></g></g></svg>