<svg width="124" height="124" viewBox="0 0 124 124" fill="none" xmlns="http://www.w3.org/2000/svg">
<path d="M123.776 81.3393C123.776 73.2653 123.911 65.1913 123.754 57.1393C123.327 34.1306 108.386 13.1072 86.4215 4.43759C63.3357 -4.65119 35.1571 0.665307 18.7569 16.328C1.93054 32.4319 -1.81614 52.3964 0.71904 73.8609C3.27665 95.6563 23.0196 117.452 43.4581 121.356C65.9382 125.636 88.8221 123.518 111.504 123.165C116.126 123.099 119.087 122.327 120.949 120.54C124.157 117.474 124.045 112.665 123.978 108.87C123.821 101.966 123.731 93.2959 123.776 81.3613V81.3393ZM93.8475 94.9945C93.8475 97.6417 91.6713 99.7816 88.9791 99.7816H81.6652C78.973 99.7816 76.7968 97.6417 76.7968 94.9945V94.5754C76.7968 81.1187 68.6079 68.9415 55.9769 63.7132L52.0283 62.0808C50.3457 61.3748 48.3938 61.6616 46.9804 62.8308L38.1634 70.1989C35 72.8461 30.154 70.6181 30.154 66.559V57.1172C30.154 55.7054 30.7822 54.3818 31.8591 53.4773L65.5343 25.3727L68.6752 24.2255H79.9826C84.5145 24.2255 86.5785 29.7626 83.1235 32.6525L64.8164 47.9402C64.3453 48.3373 64.4574 49.0873 65.0407 49.33C82.4729 56.5657 93.8027 73.3756 93.8027 91.9943V95.0386L93.8475 94.9945Z" fill="url(#paint0_linear_244_295)"/>
<defs>
<linearGradient id="paint0_linear_244_295" x1="-12.3498" y1="117.96" x2="105.576" y2="20.2624" gradientUnits="userSpaceOnUse">
<stop stop-color="#865AF5"/>
<stop offset="1" stop-color="#4C1EBE"/>
</linearGradient>
</defs>
</svg>
