<svg width="444" height="300" viewBox="0 0 444 300" fill="none" xmlns="http://www.w3.org/2000/svg">
<g clip-path="url(#clip0_422_1892)">
<path d="M439.672 5.62723e-09H139.242C138.097 0.000998737 137 0.456034 136.191 1.26521C135.382 2.07439 134.927 3.17158 134.926 4.31591V112.911H207.633C209.601 112.914 211.488 113.697 212.88 115.089C214.272 116.48 215.055 118.367 215.057 120.336V212.212H439.672C440.296 212.212 440.913 212.077 441.479 211.815C442.046 211.554 442.549 211.172 442.954 210.697C442.988 210.66 443.02 210.62 443.048 210.579C443.305 210.264 443.514 209.912 443.667 209.534C443.884 209.015 443.995 208.458 443.993 207.896V4.31591C443.992 3.17079 443.536 2.073 442.726 1.26374C441.916 0.454478 440.817 -5.83964e-05 439.672 5.62723e-09Z" fill="#F2F2F2"/>
<path d="M443.374 17.2988H135.541V18.5326H443.374V17.2988Z" fill="#CCCCCC"/>
<path d="M146.028 12.9555C148.072 12.9555 149.729 11.2984 149.729 9.25414C149.729 7.20991 148.072 5.55273 146.028 5.55273C143.983 5.55273 142.326 7.20991 142.326 9.25414C142.326 11.2984 143.983 12.9555 146.028 12.9555Z" fill="#CCCCCC"/>
<path d="M156.668 12.9555C158.712 12.9555 160.37 11.2984 160.37 9.25414C160.37 7.20991 158.712 5.55273 156.668 5.55273C154.624 5.55273 152.967 7.20991 152.967 9.25414C152.967 11.2984 154.624 12.9555 156.668 12.9555Z" fill="#CCCCCC"/>
<path d="M167.311 12.9555C169.355 12.9555 171.012 11.2984 171.012 9.25414C171.012 7.20991 169.355 5.55273 167.311 5.55273C165.267 5.55273 163.609 7.20991 163.609 9.25414C163.609 11.2984 165.267 12.9555 167.311 12.9555Z" fill="#CCCCCC"/>
<path d="M366.669 44.2383H212.247C210.54 44.2383 208.904 44.9162 207.697 46.1228C206.49 47.3295 205.812 48.9661 205.812 50.6725C205.812 52.379 206.49 54.0156 207.697 55.2223C208.904 56.4289 210.54 57.1068 212.247 57.1068H366.669C368.376 57.1068 370.012 56.4289 371.219 55.2223C372.425 54.0156 373.103 52.379 373.103 50.6725C373.103 48.9661 372.425 47.3295 371.219 46.1228C370.012 44.9162 368.376 44.2383 366.669 44.2383ZM366.669 56.1169H212.247C210.803 56.1169 209.418 55.5433 208.397 54.5223C207.376 53.5013 206.802 52.1165 206.802 50.6725C206.802 49.2286 207.376 47.8438 208.397 46.8228C209.418 45.8018 210.803 45.2282 212.247 45.2282H366.669C368.113 45.2282 369.498 45.8018 370.519 46.8228C371.54 47.8438 372.113 49.2286 372.113 50.6725C372.113 52.1165 371.54 53.5013 370.519 54.5223C369.498 55.5433 368.113 56.1169 366.669 56.1169Z" fill="#CCCCCC"/>
<path d="M413.921 95.499H259.499C257.792 95.499 256.156 96.1769 254.949 97.3836C253.742 98.5902 253.064 100.227 253.064 101.933C253.064 103.64 253.742 105.276 254.949 106.483C256.156 107.69 257.792 108.368 259.499 108.368H413.921C415.628 108.368 417.264 107.69 418.471 106.483C419.677 105.276 420.355 103.64 420.355 101.933C420.355 100.227 419.677 98.5902 418.471 97.3836C417.264 96.1769 415.628 95.499 413.921 95.499Z" fill="white"/>
<path d="M413.921 119.257H259.499C257.792 119.257 256.156 119.935 254.949 121.141C253.742 122.348 253.064 123.985 253.064 125.691C253.064 127.398 253.742 129.034 254.949 130.241C256.156 131.447 257.792 132.125 259.499 132.125H413.921C415.628 132.125 417.264 131.447 418.471 130.241C419.677 129.034 420.355 127.398 420.355 125.691C420.355 123.985 419.677 122.348 418.471 121.141C417.264 119.935 415.628 119.257 413.921 119.257Z" fill="white"/>
<path d="M413.921 143.014H259.499C257.792 143.014 256.156 143.692 254.949 144.898C253.742 146.105 253.064 147.741 253.064 149.448C253.064 151.154 253.742 152.791 254.949 153.998C256.156 155.204 257.792 155.882 259.499 155.882H413.921C415.628 155.882 417.264 155.204 418.471 153.998C419.677 152.791 420.355 151.154 420.355 149.448C420.355 147.741 419.677 146.105 418.471 144.898C417.264 143.692 415.628 143.014 413.921 143.014Z" fill="white"/>
<path d="M234.543 84.8584H164.251C162.744 84.8602 161.298 85.4599 160.232 86.526C159.166 87.5921 158.566 89.0376 158.564 90.5453V112.912H159.554V90.5453C159.556 89.3001 160.052 88.1065 160.932 87.2261C161.813 86.3456 163.006 85.8502 164.251 85.8483H234.543C235.789 85.8494 236.983 86.3446 237.863 87.2252C238.744 88.1058 239.239 89.2999 239.24 90.5453V160.837C239.239 162.083 238.744 163.277 237.863 164.157C236.983 165.038 235.789 165.533 234.543 165.534H215.057V166.524H234.543C236.051 166.523 237.497 165.924 238.563 164.857C239.63 163.791 240.229 162.345 240.23 160.837V90.5453C240.229 89.0373 239.63 87.5914 238.563 86.5251C237.497 85.4588 236.051 84.8594 234.543 84.8584Z" fill="#CCCCCC"/>
<path d="M52.2769 157.178C52.0283 157.188 41.4326 156.454 41.1621 156.445L42.1139 146.943L48.149 146.761L59.6811 125.402C58.0817 122.352 60.0499 118.305 63.4428 117.681C70.2799 116.127 72.6286 126.884 65.7707 128.315L56.232 154.415C55.9327 155.224 55.3936 155.922 54.6868 156.416C53.9799 156.909 53.1391 157.175 52.2769 157.178Z" fill="#FFB8B8"/>
<path d="M24.3442 162.072C14.2614 162.097 13.3762 146.859 23.4814 145.785C50.2026 144.17 46.8211 137.459 48.8504 157.255C48.9127 157.843 48.7395 158.43 48.3688 158.89C47.9982 159.35 47.4603 159.644 46.8733 159.707L25.2194 162.025C24.9287 162.056 24.6365 162.072 24.3442 162.072Z" fill="#6C63FF"/>
<path d="M22.0415 113.894C35.9318 121.798 24.5286 142.653 10.3793 135.227C-3.51065 127.323 7.89264 106.468 22.0415 113.894Z" fill="#FFB8B8"/>
<path d="M34.6709 293.414L40.7384 293.413L43.6254 270.008L34.6699 270.009L34.6709 293.414Z" fill="#FFB8B8"/>
<path d="M33.3695 299.048L52.44 299.048C52.3672 289.208 39.612 292.043 33.3691 291.68L33.3695 299.048Z" fill="#2F2E41"/>
<path d="M8.43849 293.414L14.506 293.413L17.393 270.008L8.4375 270.009L8.43849 293.414Z" fill="#FFB8B8"/>
<path d="M7.139 299.048L26.2095 299.048C26.1367 289.208 13.3815 292.043 7.13867 291.68L7.139 299.048Z" fill="#2F2E41"/>
<path d="M15.334 285.24C13.8675 284.837 5.8985 286.055 4.95802 284.457C1.67357 251.538 2.40367 219.321 9.69449 201.618L34.7625 200.083C40.3681 210.317 53.2537 278.222 45.4809 282.351L35.4858 282.708C34.9158 282.726 34.3568 282.548 33.9026 282.203C33.4485 281.859 33.1268 281.368 32.9916 280.814L24.6297 233.241C22.5473 230.331 18.4541 283.342 17.7782 283.143C17.69 283.728 17.3947 284.261 16.946 284.646C16.4973 285.031 15.9252 285.242 15.334 285.24Z" fill="#2F2E41"/>
<path d="M8.8978 205.779C-3.75869 192.538 4.31443 157.038 3.90584 157.793C3.94051 156.923 6.80719 143.531 14.2227 141.333C20.1059 139.391 26.6176 145.199 27.4209 151.073L36.234 203.118C36.2796 203.402 36.2579 203.692 36.1708 203.965C36.0836 204.239 35.9334 204.488 35.7323 204.692C36.1656 206.042 9.51739 205.509 8.8978 205.779Z" fill="#6C63FF"/>
<path d="M13.0061 123.208C14.1176 122.505 14.6654 121.3 15.3124 120.202C18.7203 118.26 22.6379 122.959 26.2424 121.205C36.4347 111.421 25.9582 108.534 16.571 108.018C14.3535 107.745 12.4671 108.531 10.7905 109.83C-7.96075 108.398 1.0321 133.332 12.8664 136.625C14.9559 137.54 16.5233 135.688 14.6806 134.004C12.1312 131.331 8.97314 125.951 13.0061 123.208Z" fill="#2F2E41"/>
<path d="M207.634 111.922H72.0195C69.7889 111.925 67.6506 112.813 66.0734 114.39C64.4961 115.967 63.6086 118.105 63.6055 120.336V291.586C63.6086 293.817 64.4961 295.955 66.0734 297.532C67.6506 299.11 69.7889 299.997 72.0195 300H207.634C209.865 299.997 212.003 299.11 213.58 297.532C215.157 295.955 216.045 293.817 216.048 291.586V120.336C216.045 118.105 215.157 115.967 213.58 114.39C212.003 112.813 209.865 111.925 207.634 111.922ZM215.058 291.586C215.056 293.555 214.273 295.442 212.881 296.833C211.489 298.225 209.602 299.008 207.634 299.01H72.0195C70.0512 299.008 68.1643 298.225 66.7725 296.833C65.3807 295.442 64.5977 293.555 64.5954 291.586V120.336C64.5977 118.368 65.3807 116.481 66.7725 115.089C68.1643 113.697 70.0512 112.914 72.0195 112.912H207.634C209.602 112.914 211.489 113.697 212.881 115.089C214.273 116.481 215.056 118.368 215.058 120.336V291.586Z" fill="#3F3D56"/>
<path d="M33.8088 183.984C29.3392 184.49 27.3768 174.089 25.668 171.439L34.5695 167.982L37.4659 173.28L61.732 173.883C61.8762 173.688 62.0337 173.502 62.2034 173.329C67.0158 168.29 74.8529 175.84 70.0587 180.868C69.5297 181.43 68.8877 181.873 68.1749 182.169C67.4621 182.465 66.6946 182.606 65.9232 182.584C65.1517 182.562 64.3938 182.376 63.6992 182.04C63.0047 181.703 62.3894 181.223 61.8938 180.632C61.2945 180.674 34.3948 184 33.8088 183.984Z" fill="#FFB8B8"/>
<path d="M27.215 179.019C25.7268 180.453 14.3016 160.324 13.4669 159.755C7.69371 150.782 21.2849 141.922 27.1575 150.847L39.0347 169.1C39.3562 169.595 39.4681 170.198 39.3458 170.775C39.2236 171.353 38.8772 171.858 38.3827 172.181C37.8414 172.434 27.597 179.564 27.215 179.019Z" fill="#6C63FF"/>
<path d="M180.906 230.46H98.7451C90.3524 230.42 90.3175 217.636 98.7455 217.592H180.906C189.293 217.631 189.338 230.416 180.906 230.46Z" fill="#CCCCCC"/>
<path d="M180.906 254.218H98.7451C90.3524 254.177 90.3175 241.393 98.7455 241.349H180.906C189.293 241.388 189.338 254.174 180.906 254.218Z" fill="#CCCCCC"/>
<path d="M180.906 277.975H98.7451C90.3524 277.935 90.3175 265.15 98.7455 265.106H180.906C189.293 265.146 189.338 277.931 180.906 277.975Z" fill="#CCCCCC"/>
<path d="M211.593 127.76C209.048 127.76 206.56 127.005 204.444 125.591C202.328 124.177 200.678 122.167 199.704 119.816C198.73 117.464 198.475 114.877 198.972 112.38C199.468 109.884 200.694 107.591 202.494 105.792C204.293 103.992 206.586 102.766 209.083 102.27C211.579 101.773 214.166 102.028 216.518 103.002C218.869 103.976 220.879 105.625 222.293 107.742C223.707 109.858 224.462 112.346 224.462 114.891C224.458 118.303 223.101 121.574 220.688 123.986C218.276 126.399 215.005 127.756 211.593 127.76Z" fill="#6C63FF"/>
<path d="M217.532 114.397H212.087V108.21C212.087 108.079 212.035 107.953 211.942 107.86C211.85 107.767 211.724 107.715 211.592 107.715C211.461 107.715 211.335 107.767 211.242 107.86C211.15 107.953 211.098 108.079 211.098 108.21V114.397H205.653C205.522 114.397 205.396 114.449 205.303 114.542C205.21 114.634 205.158 114.76 205.158 114.892C205.158 115.023 205.21 115.149 205.303 115.241C205.396 115.334 205.522 115.386 205.653 115.386H211.098V121.573C211.098 121.705 211.15 121.83 211.242 121.923C211.335 122.016 211.461 122.068 211.592 122.068C211.724 122.068 211.85 122.016 211.942 121.923C212.035 121.83 212.087 121.705 212.087 121.573V115.386H217.532C217.663 115.386 217.789 115.334 217.882 115.241C217.975 115.149 218.027 115.023 218.027 114.892C218.027 114.76 217.975 114.634 217.882 114.542C217.789 114.449 217.663 114.397 217.532 114.397Z" fill="white"/>
<path d="M179.422 202.15H100.231C98.0659 202.147 95.9901 201.286 94.4591 199.755C92.9281 198.224 92.0669 196.148 92.0645 193.983V149.636C92.0669 147.471 92.9281 145.395 94.4591 143.864C95.9901 142.333 98.0659 141.472 100.231 141.47H179.422C181.587 141.472 183.663 142.333 185.194 143.864C186.725 145.395 187.586 147.471 187.589 149.636V193.983C187.586 196.148 186.725 198.224 185.194 199.755C183.663 201.286 181.587 202.147 179.422 202.15Z" fill="#6C63FF"/>
</g>
<defs>
<clipPath id="clip0_422_1892">
<rect width="443.993" height="300" fill="white"/>
</clipPath>
</defs>
</svg>
