<svg width="299" height="300" viewBox="0 0 299 300" fill="none" xmlns="http://www.w3.org/2000/svg">
<g clip-path="url(#clip0_416_1592)">
<path d="M209.855 298.914H80.1193C66.0542 298.914 54.6113 287.471 54.6113 273.406V25.508C54.6113 11.4429 66.0542 0 80.1193 0H209.855C223.92 0 235.363 11.4429 235.363 25.508V273.406C235.363 287.471 223.92 298.914 209.855 298.914Z" fill="#3F3D56"/>
<path d="M235.362 91.1851C234.767 91.1851 234.283 91.669 234.283 92.2642V126.796C234.283 127.391 234.767 127.875 235.362 127.875C235.957 127.875 236.441 127.391 236.441 126.796V92.2642C236.441 91.669 235.957 91.1851 235.362 91.1851Z" fill="#3F3D56"/>
<path d="M232.934 25.5082V273.402C232.934 285.644 223.406 295.659 211.358 296.436H211.352C211.174 296.446 210.996 296.457 210.813 296.463C210.494 296.479 210.176 296.484 209.852 296.484C209.852 296.484 208.665 296.398 206.496 296.236C204.306 296.074 201.117 295.831 197.14 295.513C195.948 295.421 194.691 295.319 193.363 295.211C190.72 294.995 187.817 294.758 184.703 294.488C183.462 294.385 182.178 294.272 180.867 294.159C174.166 293.581 166.661 292.907 158.745 292.141C157.407 292.017 156.058 291.887 154.699 291.752C154.343 291.714 153.981 291.682 153.62 291.644C147.976 291.089 142.176 290.49 136.354 289.853C135.992 289.815 135.631 289.777 135.275 289.74C125.244 288.634 115.176 287.43 105.756 286.135C98.5093 285.143 91.6462 284.096 85.4845 283.011C83.4773 282.655 81.5457 282.299 79.7004 281.938C79.3389 281.868 78.9774 281.797 78.6213 281.722C65.5802 279.11 57.0391 276.294 57.0391 273.402V25.5082C57.0391 12.7585 67.3716 2.42603 80.1213 2.42603H93.9015C96.1029 2.42603 97.8727 4.14181 98.0615 6.33781C98.0777 6.4835 98.0939 6.62916 98.1209 6.77485C98.5201 8.98165 100.543 10.5194 102.788 10.5194H187.185C189.43 10.5194 191.453 8.98164 191.853 6.77485C191.88 6.62916 191.896 6.4835 191.912 6.33781C192.101 4.14181 193.87 2.42603 196.072 2.42603H209.852C222.602 2.42603 232.934 12.7585 232.934 25.5082Z" fill="white"/>
<path d="M124.041 250.894C124.122 251.255 124.192 251.611 124.262 251.973H85.3658C82.8515 251.973 80.7148 253.618 79.9756 255.89C79.83 255.653 79.6789 255.415 79.5332 255.178V255.172C79.5764 254.795 79.6195 254.417 79.6681 254.039C80.4397 247.937 81.9504 241.942 84.168 236.202C87.3028 236.741 90.2866 234.637 90.8315 231.502C91.1175 229.829 90.6534 228.108 89.5582 226.808L89.3639 225.205L89.5636 224.849C93.853 217.452 103.328 214.938 110.72 219.227C114.232 221.261 116.806 224.601 117.879 228.518C119.919 235.916 122.455 243.383 124.041 250.894Z" fill="#FAFAFA"/>
<path d="M228.769 189.951L228.672 190.301C226.562 190.868 224.49 191.564 222.473 192.384C221.318 192.859 220.179 193.372 219.057 193.927C215.194 195.859 213.629 200.553 215.566 204.416C216.543 206.375 218.302 207.832 220.411 208.436L220.563 208.479L220.886 208.571C216.43 216.313 210.678 223.236 203.879 229.031C194.087 259.791 168.657 259.629 143.012 247.09L142.996 247.084C141.021 252.48 138.804 257.773 136.354 262.964C135.998 263.714 135.642 264.458 135.275 265.203V257.638C135.275 257.152 135.216 256.678 135.097 256.23C135.313 255.75 135.518 255.269 135.723 254.784C142.311 239.288 146.757 222.912 148.893 206.116C149.719 199.56 150.177 192.967 150.269 186.363C150.339 180.951 150.167 175.545 149.762 170.149C147.517 140.862 138.361 112.524 123.038 87.462C114.842 81.5539 108.653 73.2717 105.308 63.7378C104.089 60.3116 103.376 56.7236 103.188 53.0869C104.164 53.3459 108.82 38.5675 108.184 37.5477C109.835 35.6215 112.441 34.8877 114.211 33.0316C123.005 23.7836 133.138 26.8699 136.802 41.3947C147.615 48.6733 146.514 58.353 138.259 66.7593C133.009 72.1063 131.379 80.027 126.631 85.8596C126.971 86.4315 127.333 86.9926 127.673 87.5646C133.91 98.0643 139.1 109.147 143.174 120.661C143.379 108.364 146.498 96.2892 152.276 85.4333C158.017 75.3598 167.4 67.4499 175.828 59.1731C182.065 52.9574 192.166 52.9736 198.381 59.2109C201.365 62.2054 203.038 66.2629 203.038 70.4876L203.027 70.8977C201.872 71.3725 200.734 71.8851 199.612 72.4408C195.748 74.3724 194.189 79.072 196.121 82.9298C197.097 84.8884 198.856 86.3506 200.966 86.9495L201.117 86.9926C200.243 90.8397 199.083 94.6112 197.637 98.2801C202.428 135.526 180.635 146.133 151.807 143.106C151.127 143.355 150.469 143.603 149.794 143.83C153.312 159.989 154.71 176.543 153.954 193.059C153.48 202.803 152.217 212.493 150.183 222.033L150.275 221.698C153.706 211.236 160.639 202.28 169.909 196.339C183.662 187.668 201.743 186.115 216.225 179.575C220.697 177.438 226.05 179.332 228.186 183.805C229.104 185.721 229.309 187.895 228.769 189.951Z" fill="#FAFAFA"/>
<path d="M54.0713 65.2864C53.4762 65.2864 52.9922 65.7703 52.9922 66.3655V74.9984C52.9922 75.5935 53.4762 76.0775 54.0713 76.0775C54.6664 76.0775 55.1504 75.5935 55.1504 74.9984V66.3655C55.1504 65.7703 54.6664 65.2864 54.0713 65.2864Z" fill="#3F3D56"/>
<path d="M54.0713 91.1851C53.4762 91.1851 52.9922 91.669 52.9922 92.2642V108.99C52.9922 109.586 53.4762 110.07 54.0713 110.07C54.6664 110.07 55.1504 109.586 55.1504 108.99V92.2642C55.1504 91.669 54.6664 91.1851 54.0713 91.1851Z" fill="#3F3D56"/>
<path d="M54.0713 114.926C53.4762 114.926 52.9922 115.41 52.9922 116.005V132.731C52.9922 133.326 53.4762 133.81 54.0713 133.81C54.6664 133.81 55.1504 133.326 55.1504 132.731V116.005C55.1504 115.41 54.6664 114.926 54.0713 114.926Z" fill="#3F3D56"/>
<path d="M92.6501 6.20508H73.7656C73.1697 6.20508 72.6865 6.68821 72.6865 7.28419V7.82375C72.6865 8.41972 73.1697 8.90286 73.7656 8.90286H92.6501C93.2461 8.90286 93.7292 8.41972 93.7292 7.82375V7.28419C93.7292 6.68821 93.2461 6.20508 92.6501 6.20508Z" fill="#3F3D56"/>
<path d="M199.481 8.90288C200.673 8.90288 201.64 7.93661 201.64 6.74465C201.64 5.5527 200.673 4.58643 199.481 4.58643C198.29 4.58643 197.323 5.5527 197.323 6.74465C197.323 7.93661 198.29 8.90288 199.481 8.90288Z" fill="#3F3D56"/>
<path d="M205.417 8.90288C206.609 8.90288 207.575 7.93661 207.575 6.74465C207.575 5.5527 206.609 4.58643 205.417 4.58643C204.225 4.58643 203.259 5.5527 203.259 6.74465C203.259 7.93661 204.225 8.90288 205.417 8.90288Z" fill="#3F3D56"/>
<path d="M211.353 8.90288C212.545 8.90288 213.511 7.93661 213.511 6.74465C213.511 5.5527 212.545 4.58643 211.353 4.58643C210.161 4.58643 209.194 5.5527 209.194 6.74465C209.194 7.93661 210.161 8.90288 211.353 8.90288Z" fill="#3F3D56"/>
<path d="M193.547 33.4525H96.427C93.8981 33.4525 91.8408 31.3952 91.8408 28.8663C91.8408 26.3374 93.8981 24.28 96.427 24.28H193.547C196.076 24.28 198.133 26.3374 198.133 28.8663C198.133 31.3952 196.076 33.4525 193.547 33.4525Z" fill="#E6E6E6"/>
<path d="M98.0454 31.0245C96.558 31.0245 95.3477 29.8142 95.3477 28.3267C95.3477 26.8392 96.558 25.6289 98.0454 25.6289C99.5329 25.6289 100.743 26.8392 100.743 28.3267C100.743 29.8142 99.5329 31.0245 98.0454 31.0245ZM98.0454 26.708C97.1528 26.708 96.4268 27.4341 96.4268 28.3267C96.4268 29.2193 97.1528 29.9454 98.0454 29.9454C98.938 29.9454 99.6641 29.2193 99.6641 28.3267C99.6641 27.4341 98.938 26.708 98.0454 26.708Z" fill="white"/>
<path d="M102.196 32.8579C102.063 32.8579 101.931 32.8097 101.827 32.7119L99.2948 30.339C99.0772 30.1353 99.0661 29.7939 99.27 29.5766C99.4734 29.3584 99.8148 29.3476 100.032 29.5518L102.565 31.9247C102.782 32.1284 102.793 32.4698 102.589 32.6872C102.483 32.8007 102.34 32.8579 102.196 32.8579Z" fill="white"/>
<path d="M97.7752 124.637C97.3289 124.637 96.9658 125 96.9658 125.447V125.986C96.9658 126.433 97.3289 126.796 97.7752 126.796H116.66C117.106 126.796 117.469 126.433 117.469 125.986V125.447C117.469 125 117.106 124.637 116.66 124.637H97.7752Z" fill="#3F3D56"/>
<path d="M129.609 116.544H85.3655C81.6466 116.544 78.6211 113.519 78.6211 109.8V65.5562C78.6211 61.8373 81.6466 58.8118 85.3655 58.8118H129.609C133.328 58.8118 136.354 61.8373 136.354 65.5562V109.8C136.354 113.519 133.328 116.544 129.609 116.544ZM85.3655 59.8909C82.2367 59.8909 79.7002 62.4273 79.7002 65.5562V109.8C79.7002 112.929 82.2367 115.465 85.3655 115.465H116.357C126.805 115.465 135.274 106.996 135.274 96.5478V65.5562C135.274 62.4273 132.738 59.8909 129.609 59.8909H85.3655Z" fill="#F2F2F2"/>
<path d="M91.8406 64.4771C88.4191 64.4771 85.6357 67.2604 85.6357 70.6819V80.394C85.6357 83.8154 88.4191 86.5989 91.8406 86.5989H101.553C104.974 86.5989 107.758 83.8154 107.758 80.394V70.6819C107.758 67.2604 104.974 64.4771 101.553 64.4771H91.8406Z" fill="#F2F2F2"/>
<path d="M117.2 64.4771C113.779 64.4771 110.995 67.2604 110.995 70.6819V80.394C110.995 83.8154 113.779 86.5989 117.2 86.5989H126.912C130.334 86.5989 133.117 83.8154 133.117 80.394V70.6819C133.117 67.2604 130.334 64.4771 126.912 64.4771H117.2Z" fill="#F2F2F2"/>
<path d="M89.952 89.0269C86.5305 89.0269 83.7471 91.8103 83.7471 95.2318V104.944C83.7471 108.365 86.5305 111.149 89.952 111.149H99.664C103.085 111.149 105.869 108.365 105.869 104.944V95.2318C105.869 91.8103 103.085 89.0269 99.664 89.0269H89.952Z" fill="#F2F2F2"/>
<path d="M172.774 124.637C172.328 124.637 171.965 125 171.965 125.447V125.986C171.965 126.433 172.328 126.796 172.774 126.796H191.659C192.105 126.796 192.468 126.433 192.468 125.986V125.447C192.468 125 192.105 124.637 191.659 124.637H172.774Z" fill="#3F3D56"/>
<path d="M97.7752 220.678C97.3289 220.678 96.9658 221.042 96.9658 221.488V222.027C96.9658 222.474 97.3289 222.837 97.7752 222.837H116.66C117.106 222.837 117.469 222.474 117.469 222.027V221.488C117.469 221.042 117.106 220.678 116.66 220.678H97.7752Z" fill="#3F3D56"/>
<path d="M129.609 212.585H85.3655C81.6466 212.585 78.6211 209.56 78.6211 205.841V161.597C78.6211 157.878 81.6466 154.853 85.3655 154.853H129.609C133.328 154.853 136.354 157.878 136.354 161.597V205.841C136.354 209.56 133.328 212.585 129.609 212.585ZM85.3655 155.932C82.2367 155.932 79.7002 158.468 79.7002 161.597V205.841C79.7002 208.97 82.2367 211.506 85.3655 211.506H116.897C127.046 211.506 135.274 203.278 135.274 193.128V161.597C135.274 158.468 132.738 155.932 129.609 155.932H85.3655Z" fill="#F2F2F2"/>
<path d="M89.952 160.248C86.5305 160.248 83.7471 163.032 83.7471 166.453V176.165C83.7471 179.587 86.5305 182.37 89.952 182.37H99.664C103.085 182.37 105.869 179.587 105.869 176.165V166.453C105.869 163.032 103.085 160.248 99.664 160.248H89.952Z" fill="#F2F2F2"/>
<path d="M115.311 160.248C111.89 160.248 109.106 163.032 109.106 166.453V176.165C109.106 179.587 111.89 182.37 115.311 182.37H125.023C128.445 182.37 131.228 179.587 131.228 176.165V166.453C131.228 163.032 128.445 160.248 125.023 160.248H115.311Z" fill="#F2F2F2"/>
<path d="M89.952 185.068C86.5305 185.068 83.7471 187.851 83.7471 191.273V200.985C83.7471 204.406 86.5305 207.19 89.952 207.19H99.664C103.085 207.19 105.869 204.406 105.869 200.985V191.273C105.869 187.851 103.085 185.068 99.664 185.068H89.952Z" fill="#F2F2F2"/>
<path d="M172.774 220.678C172.328 220.678 171.965 221.042 171.965 221.488V222.027C171.965 222.474 172.328 222.837 172.774 222.837H191.659C192.105 222.837 192.468 222.474 192.468 222.027V221.488C192.468 221.042 192.105 220.678 191.659 220.678H172.774Z" fill="#3F3D56"/>
<path d="M204.608 212.585H160.365C156.646 212.585 153.62 209.56 153.62 205.841V161.597C153.62 157.878 156.646 154.853 160.365 154.853H204.608C208.327 154.853 211.353 157.878 211.353 161.597V205.841C211.353 209.56 208.327 212.585 204.608 212.585ZM160.365 155.932C157.236 155.932 154.699 158.468 154.699 161.597V205.841C154.699 208.97 157.236 211.506 160.365 211.506H192.25C202.204 211.506 210.274 203.437 210.274 193.483V161.597C210.274 158.468 207.737 155.932 204.608 155.932H160.365Z" fill="#F2F2F2"/>
<path d="M164.95 160.248C161.529 160.248 158.745 163.032 158.745 166.453V176.165C158.745 179.587 161.529 182.37 164.95 182.37H174.662C178.084 182.37 180.867 179.587 180.867 176.165V166.453C180.867 163.032 178.084 160.248 174.662 160.248H164.95Z" fill="#F2F2F2"/>
<path d="M190.309 160.248C186.888 160.248 184.104 163.032 184.104 166.453V176.165C184.104 179.587 186.888 182.37 190.309 182.37H200.021C203.443 182.37 206.226 179.587 206.226 176.165V166.453C206.226 163.032 203.443 160.248 200.021 160.248H190.309Z" fill="#F2F2F2"/>
<path d="M164.95 185.068C161.529 185.068 158.745 187.851 158.745 191.273V200.985C158.745 204.406 161.529 207.19 164.95 207.19H174.662C178.084 207.19 180.867 204.406 180.867 200.985V191.273C180.867 187.851 178.084 185.068 174.662 185.068H164.95Z" fill="#F2F2F2"/>
<path d="M136.354 257.636V289.853C135.992 289.815 135.631 289.777 135.274 289.74V257.636C135.274 257.15 135.215 256.676 135.096 256.228C134.471 253.784 132.248 251.971 129.609 251.971H85.3655C82.8512 251.971 80.7146 253.616 79.9754 255.888C79.7973 256.438 79.7002 257.026 79.7002 257.636V281.938C79.3387 281.868 78.9772 281.797 78.6211 281.722V257.636C78.6211 256.314 79.0042 255.079 79.6678 254.037C80.8656 252.149 82.9699 250.892 85.3655 250.892H129.609C132.307 250.892 134.638 252.483 135.722 254.782C136.127 255.645 136.354 256.616 136.354 257.636Z" fill="#F2F2F2"/>
<path d="M99.664 256.289H89.952C86.5312 256.289 83.7471 259.073 83.7471 262.494V272.206C83.7471 275.627 86.5312 278.411 89.952 278.411H99.664C103.085 278.411 105.869 275.627 105.869 272.206V262.494C105.869 259.073 103.085 256.289 99.664 256.289Z" fill="#F2F2F2"/>
<path d="M125.023 256.289H115.311C111.891 256.289 109.106 259.073 109.106 262.494V272.206C109.106 275.627 111.891 278.411 115.311 278.411H125.023C128.444 278.411 131.228 275.627 131.228 272.206V262.494C131.228 259.073 128.444 256.289 125.023 256.289Z" fill="#F2F2F2"/>
<path d="M99.6639 281.107H89.9519C88.1983 281.107 86.612 281.84 85.4844 283.011C91.6461 284.096 98.5092 285.143 105.755 286.135C105.205 283.276 102.685 281.107 99.6639 281.107Z" fill="#F2F2F2"/>
<path d="M211.353 257.636V296.463H210.274V257.636C210.274 254.512 207.732 251.971 204.608 251.971H160.365C157.241 251.971 154.699 254.512 154.699 257.636V291.752C154.343 291.714 153.982 291.682 153.62 291.644V257.636C153.62 253.919 156.647 250.892 160.365 250.892H204.608C208.326 250.892 211.353 253.919 211.353 257.636Z" fill="#F2F2F2"/>
<path d="M174.662 256.289H164.95C161.529 256.289 158.745 259.073 158.745 262.494V272.206C158.745 275.627 161.529 278.411 164.95 278.411H174.662C178.083 278.411 180.867 275.627 180.867 272.206V262.494C180.867 259.073 178.083 256.289 174.662 256.289Z" fill="#F2F2F2"/>
<path d="M200.021 256.289H190.309C186.889 256.289 184.104 259.073 184.104 262.494V272.206C184.104 275.627 186.889 278.411 190.309 278.411H200.021C203.442 278.411 206.226 275.627 206.226 272.206V262.494C206.226 259.073 203.442 256.289 200.021 256.289Z" fill="#F2F2F2"/>
<path d="M174.662 281.107H164.95C161.529 281.107 158.745 283.891 158.745 287.312V292.141C166.66 292.907 174.166 293.581 180.867 294.159V287.312C180.867 283.891 178.083 281.107 174.662 281.107Z" fill="#F2F2F2"/>
<path d="M111.658 184.975C110.198 184.975 109.01 186.163 109.01 187.624V191.769C109.01 193.23 110.198 194.418 111.658 194.418H115.804C117.264 194.418 118.452 193.23 118.452 191.769V187.624C118.452 186.163 117.264 184.975 115.804 184.975H111.658Z" fill="#F2F2F2"/>
<path d="M124.607 184.975C123.147 184.975 121.959 186.163 121.959 187.624V191.769C121.959 193.23 123.147 194.418 124.607 194.418H128.753C130.213 194.418 131.401 193.23 131.401 191.769V187.624C131.401 186.163 130.213 184.975 128.753 184.975H124.607Z" fill="#F2F2F2"/>
<path d="M111.658 90.0137C110.198 90.0137 109.01 91.2017 109.01 92.6621V96.8075C109.01 98.2679 110.198 99.4559 111.658 99.4559H115.804C117.264 99.4559 118.452 98.2679 118.452 96.8075V92.6621C118.452 91.2017 117.264 90.0137 115.804 90.0137H111.658Z" fill="#F2F2F2"/>
<path d="M124.607 90.0137C123.147 90.0137 121.959 91.2017 121.959 92.6621V96.8075C121.959 98.2679 123.147 99.4559 124.607 99.4559H128.753C130.213 99.4559 131.401 98.2679 131.401 96.8075V92.6621C131.401 91.2017 130.213 90.0137 128.753 90.0137H124.607Z" fill="#F2F2F2"/>
<path d="M190.898 281.109H186.754C185.292 281.109 184.104 282.296 184.104 283.758V287.902C184.104 289.364 185.292 290.551 186.754 290.551H190.898C192.36 290.551 193.547 289.364 193.547 287.902V283.758C193.547 282.296 192.36 281.109 190.898 281.109Z" fill="#F2F2F2"/>
<path d="M203.847 281.109H199.703C198.241 281.109 197.054 282.296 197.054 283.758V287.902C197.054 289.364 198.241 290.551 199.703 290.551H203.847C205.309 290.551 206.496 289.364 206.496 287.902V283.758C206.496 282.296 205.309 281.109 203.847 281.109Z" fill="#F2F2F2"/>
<path d="M190.898 293.517H186.754C185.929 293.517 185.19 293.894 184.704 294.488C187.817 294.758 190.72 294.995 193.364 295.211C192.986 294.218 192.026 293.517 190.898 293.517Z" fill="#F2F2F2"/>
<path d="M203.847 293.517H199.704C198.468 293.517 197.427 294.364 197.141 295.513C201.117 295.831 204.306 296.074 206.497 296.236V296.166C206.497 294.704 205.31 293.517 203.847 293.517Z" fill="#F2F2F2"/>
<path d="M214.709 65.5797L216.525 74.6378L211.496 76.3974L209.916 66.7523C209.685 66.5635 209.477 66.3384 209.302 66.0776C208.351 64.6587 208.731 62.738 210.15 61.7874C211.569 60.8369 213.489 61.2166 214.44 62.6355C215.046 63.5403 215.109 64.6484 214.709 65.5797Z" fill="#A0616A"/>
<path d="M241.01 124.89L248.372 116.959L224.771 92.8173C224.771 92.8173 223.806 91.9106 224.458 91.785C225.109 91.6593 224.124 90.6831 224.124 90.6831C224.124 90.6831 222.587 89.2229 223.82 89.6786C225.053 90.1343 223.49 88.5899 223.49 88.5899L217.962 70.3426L216.982 67.1062L208.727 72.0336C208.727 72.0336 208.8 72.66 208.946 73.7284C209.682 79.119 212.27 95.7623 216.638 99.9918C221.872 105.06 241.01 124.89 241.01 124.89Z" fill="#6C63FF"/>
<path d="M220.239 293.882L215.039 293.882L212.565 273.825L220.24 273.825L220.239 293.882Z" fill="#A0616A"/>
<path d="M220.422 299.307L204.432 299.306V299.104C204.432 295.667 207.218 292.88 210.656 292.88L213.577 290.664L219.027 292.881L220.423 292.881L220.422 299.307Z" fill="#2F2E41"/>
<path d="M262.661 288.786L257.744 290.476L248.881 272.314L256.138 269.819L262.661 288.786Z" fill="#A0616A"/>
<path d="M264.598 293.856L249.477 299.056L249.411 298.865C248.294 295.614 250.022 292.073 253.273 290.955L255.314 287.909L261.189 288.233L262.509 287.779L264.598 293.856Z" fill="#2F2E41"/>
<path d="M252.958 159.663H218.086C218.086 159.663 216.389 174.761 215.759 173.844C215.129 172.928 215.312 174.259 215.491 175.482C215.669 176.705 213.893 177.459 215.051 178.161C216.209 178.863 215.793 180.165 214.652 180.593C213.511 181.021 214.05 184.258 214.05 184.258L208.115 242.216L212.971 285.695H221.065L231.856 206.38V246.847L253.438 282.997L260.452 280.299L251.819 241.451L258.294 169.69L252.958 159.663Z" fill="#2F2E41"/>
<path d="M258.833 163.755L256.168 166.68L215.668 168.072L214.05 164.295L222.143 145.95L230.776 108.721L234.553 100.627V99.7373C234.553 99.6129 234.524 99.4903 234.468 99.379C234.237 98.9153 234.5 98.3568 235.005 98.2403L235.092 96.8504L234.013 97.3899L241.028 94.1526L246.801 94.7191L246.963 95.2317L248.166 96.1543C253.178 99.9852 256.07 105.969 255.957 112.276L255.596 132.461L258.833 163.755Z" fill="#3F3D56"/>
<path d="M235.233 91.4428C235.474 91.4984 235.714 91.5465 235.955 91.5835C236.703 91.7057 237.451 91.7428 238.18 91.6983C240.395 91.5835 242.483 90.7652 244.171 89.4175C245.956 87.9957 247.289 85.9851 247.848 83.5932C249.162 77.9466 245.649 72.2963 240.002 70.9819C234.437 69.6823 228.872 73.0739 227.45 78.5761C227.428 78.6612 227.406 78.7427 227.387 78.8279C226.073 84.4781 229.583 90.1247 235.233 91.4428Z" fill="#A0616A"/>
<path d="M219.278 164.302L224.681 156.808L229.393 159.297L223.399 167.017C223.418 167.315 223.394 167.62 223.322 167.926C222.929 169.588 221.263 170.616 219.601 170.223C217.939 169.83 216.91 168.164 217.303 166.502C217.554 165.442 218.323 164.642 219.278 164.302Z" fill="#A0616A"/>
<path d="M244.851 104.674H234.03L232.395 138.396C232.395 138.396 232.386 139.72 231.851 139.328C231.316 138.936 231.27 140.322 231.27 140.322C231.27 140.322 231.246 142.442 230.741 141.228C230.237 140.015 230.168 142.211 230.168 142.211L220.555 158.677L218.851 161.597L228.078 164.295C228.078 164.295 228.487 163.815 229.171 162.981C232.621 158.774 243.058 145.554 243.186 139.475C243.339 132.191 244.851 104.674 244.851 104.674Z" fill="#6C63FF"/>
<path d="M230.776 112.497C230.776 112.497 239.409 101.167 246.963 111.958L245.344 97.9294L237.089 96.409C236.604 96.3571 236.186 96.7455 236.203 97.2321L230.776 112.497Z" fill="#3F3D56"/>
<path d="M234.013 101.167L233.986 99.3L233.738 98.9007L234.013 98.4691L234.057 98.372L235.093 94.1526L244.319 90.9153L246.801 94.7192C243.073 97.2335 242.225 101.259 234.013 101.167Z" fill="#6C63FF"/>
<path d="M242.724 89.8836L241.824 83.1315C241.735 82.4614 240.863 82.2593 240.488 82.8218H238.869L237.251 77.4262C237.251 77.4262 236.634 79.8686 235.59 79.2699C234.441 78.6108 233.003 78.9414 231.725 79.2895L232.308 77.7396L229.71 78.4499L230.059 77.3502L228.444 77.8675C228.722 77.6607 228.471 77.1692 228.129 77.1161C227.787 77.0631 226.46 78.5053 225.92 78.5053C225.475 78.5053 225.038 78.1485 224.694 77.8658C223.783 77.116 223.329 73.3521 223.762 72.5702C224.565 71.1202 226.386 71.6024 227.539 70.412C227.796 70.1467 230.515 70.1335 230.776 69.8724C231.098 69.5505 233.429 68.3988 233.884 68.3948C234.34 68.3907 234.77 68.9605 234.474 69.3065C234.686 68.6202 235.569 68.4432 236.287 68.4571C236.792 68.4669 238.366 67.1302 238.869 67.1747C239.954 67.2705 239.967 68.7475 241.051 68.8433C241.926 68.9207 242.966 69.1107 243.31 69.9193C243.479 70.3143 243.428 70.7625 243.441 71.1918C243.453 71.621 243.565 72.0998 243.931 72.3251C244.249 72.5214 244.675 72.4582 244.996 72.266C245.317 72.0739 245.556 71.7735 245.788 71.4796C246.138 72.613 248.107 75.3651 248.458 76.4985C248.812 77.6451 249.168 78.7968 249.348 79.9832C249.899 83.6 246.005 87.443 243.498 90.1079" fill="#2F2E41"/>
<path d="M160.364 59.3513C156.943 59.3513 154.159 62.1347 154.159 65.5562V109.8C154.159 113.221 156.943 116.005 160.364 116.005H204.608C208.029 116.005 210.813 113.221 210.813 109.8V65.5562C210.813 62.1347 208.029 59.3513 204.608 59.3513H160.364Z" fill="#F2F2F2"/>
<path d="M164.95 64.2073C161.529 64.2073 158.745 66.9907 158.745 70.4122V80.1242C158.745 83.5457 161.529 86.3291 164.95 86.3291H174.662C178.084 86.3291 180.867 83.5457 180.867 80.1242V70.4122C180.867 66.9907 178.084 64.2073 174.662 64.2073H164.95Z" fill="#6C63FF"/>
<path d="M190.309 64.2073C186.888 64.2073 184.104 66.9907 184.104 70.4122V80.1242C184.104 83.5457 186.888 86.3291 190.309 86.3291H200.021C203.443 86.3291 206.226 83.5457 206.226 80.1242V70.4122C206.226 66.9907 203.443 64.2073 200.021 64.2073H190.309Z" fill="#6C63FF"/>
<path d="M164.95 89.0269C161.529 89.0269 158.745 91.8103 158.745 95.2318V104.944C158.745 108.365 161.529 111.149 164.95 111.149H174.662C178.084 111.149 180.867 108.365 180.867 104.944V95.2318C180.867 91.8103 178.084 89.0269 174.662 89.0269H164.95Z" fill="white"/>
<path d="M186.753 89.0269C185.293 89.0269 184.104 90.2149 184.104 91.6753V95.8207C184.104 97.2811 185.293 98.4691 186.753 98.4691H190.898C192.359 98.4691 193.547 97.2811 193.547 95.8207V91.6753C193.547 90.2149 192.359 89.0269 190.898 89.0269H186.753Z" fill="white"/>
<path d="M199.702 89.0269C198.242 89.0269 197.054 90.2149 197.054 91.6753V95.8207C197.054 97.2811 198.242 98.4691 199.702 98.4691H203.848C205.308 98.4691 206.496 97.2811 206.496 95.8207V91.6753C206.496 90.2149 205.308 89.0269 203.848 89.0269H199.702Z" fill="white"/>
<path d="M186.753 101.437C185.293 101.437 184.104 102.625 184.104 104.085V108.231C184.104 109.691 185.293 110.879 186.753 110.879H190.898C192.359 110.879 193.547 109.691 193.547 108.231V104.085C193.547 102.625 192.359 101.437 190.898 101.437H186.753Z" fill="white"/>
<path d="M199.702 101.437C198.242 101.437 197.054 102.625 197.054 104.085V108.231C197.054 109.691 198.242 110.879 199.702 110.879H203.848C205.308 110.879 206.496 109.691 206.496 108.231V104.085C206.496 102.625 205.308 101.437 203.848 101.437H199.702Z" fill="white"/>
<path d="M268.996 290.648C270.111 290.718 270.727 289.333 269.883 288.526L269.799 288.192C269.811 288.165 269.822 288.139 269.833 288.112C270.96 285.424 274.781 285.443 275.898 288.135C276.89 290.524 278.153 292.917 278.464 295.443C278.604 296.559 278.541 297.695 278.293 298.789C280.618 293.711 281.841 288.167 281.841 282.591C281.841 281.19 281.764 279.789 281.608 278.392C281.479 277.249 281.301 276.113 281.071 274.987C279.827 268.902 277.133 263.107 273.247 258.266C271.379 257.245 269.822 255.649 268.881 253.736C268.543 253.046 268.278 252.304 268.152 251.547C268.365 251.575 268.954 248.338 268.794 248.139C269.09 247.69 269.62 247.466 269.944 247.027C271.553 244.846 273.77 245.227 274.927 248.191C277.399 249.439 277.423 251.509 275.906 253.499C274.941 254.765 274.809 256.478 273.962 257.834C274.049 257.946 274.139 258.054 274.227 258.165C275.824 260.214 277.206 262.417 278.371 264.731C278.042 262.159 278.528 259.061 279.356 257.064C280.3 254.788 282.068 252.872 283.625 250.905C285.495 248.542 289.329 249.573 289.659 252.569C289.662 252.598 289.665 252.627 289.668 252.656C289.437 252.786 289.21 252.925 288.989 253.071C287.727 253.906 288.163 255.863 289.659 256.093L289.693 256.099C289.609 256.931 289.466 257.757 289.257 258.569C291.254 266.294 286.942 269.107 280.785 269.233C280.649 269.303 280.517 269.373 280.381 269.439C281.005 271.195 281.503 272.997 281.872 274.823C282.204 276.437 282.434 278.068 282.562 279.705C282.723 281.772 282.709 283.849 282.535 285.912L282.545 285.839C282.988 283.567 284.221 281.444 286.013 279.974C288.681 277.782 292.451 276.975 295.33 275.213C296.716 274.364 298.491 275.46 298.249 277.067L298.238 277.144C297.809 277.318 297.391 277.52 296.987 277.747C296.755 277.877 296.529 278.016 296.307 278.162C295.045 278.997 295.481 280.954 296.977 281.185L297.011 281.19C297.035 281.194 297.056 281.197 297.081 281.201C296.345 282.946 295.321 284.567 294.038 285.964C292.789 292.707 287.426 293.347 281.688 291.383H281.684C281.057 294.116 280.14 296.785 278.963 299.329H269.24C269.205 299.221 269.173 299.11 269.142 299.001C270.041 299.057 270.947 299.005 271.832 298.841C271.111 297.956 270.39 297.064 269.668 296.179C269.651 296.161 269.637 296.144 269.623 296.126C269.257 295.673 268.888 295.224 268.522 294.771L268.522 294.77C268.499 293.379 268.666 291.993 268.996 290.648Z" fill="#F2F2F2"/>
<path d="M0 299.358C0 299.714 0.285981 300 0.642104 300H297.554C297.911 300 298.197 299.714 298.197 299.358C298.197 299.002 297.911 298.716 297.554 298.716H0.642104C0.285981 298.716 0 299.002 0 299.358Z" fill="#CCCCCC"/>
</g>
<defs>
<clipPath id="clip0_416_1592">
<rect width="298.272" height="300" fill="white"/>
</clipPath>
</defs>
</svg>
