<svg width="366" height="300" viewBox="0 0 366 300" fill="none" xmlns="http://www.w3.org/2000/svg">
<g clip-path="url(#clip0_418_1852)">
<path d="M365.267 290.828C365.378 302.516 291.727 303.587 290.324 290.829C290.213 279.142 363.864 278.071 365.267 290.828Z" fill="#E6E6E6"/>
<path d="M307.643 250.253L302.169 253.239L305.652 264.684L311.126 265.181L314.111 258.713L307.643 250.253Z" fill="#9F616A"/>
<path d="M324.561 273.143V278.616L333.02 278.119L332.902 273.611L324.561 273.143Z" fill="#9F616A"/>
<path d="M305.652 184.57L308.638 221.89L318.092 276.626L333.02 274.636L328.044 231.344L330.035 191.537L305.652 184.57Z" fill="#2F2E41"/>
<path d="M345.46 156.705L309.632 157.202L305.651 184.57L330.034 196.015L336.005 217.91L305.651 250.254L317.594 265.182C317.594 265.182 334.512 242.292 346.952 229.354C359.392 216.417 353.421 177.106 353.421 177.106L345.46 156.705Z" fill="#2F2E41"/>
<path d="M324.063 86.0448C330.109 86.0448 335.011 81.1436 335.011 75.0976C335.011 69.0516 330.109 64.1504 324.063 64.1504C318.017 64.1504 313.116 69.0516 313.116 75.0976C313.116 81.1436 318.017 86.0448 324.063 86.0448Z" fill="#9F616A"/>
<path d="M320.082 82.562V93.5092L327.546 105.452C327.546 105.452 338.991 96.9924 336.503 95.002C334.015 93.0116 333.517 77.5859 333.517 77.5859L320.082 82.562Z" fill="#9F616A"/>
<path d="M320.082 91.5189L312.618 100.475L315.604 162.675L338.991 162.178L342.972 107.94L337.996 94.0068L334.583 89.3628L328.542 98.4851L320.082 91.5189Z" fill="#D0CDE1"/>
<path d="M308.14 123.863L302.667 144.762L308.14 165.661L299.183 177.604L291.222 139.786C291.222 139.786 297.193 108.935 297.691 105.452C298.188 101.968 299.183 101.471 299.183 101.471L303.164 101.968L308.14 123.863Z" fill="#2F2E41"/>
<path d="M347.947 131.824L351.431 138.293L352.426 149.24L350.436 161.68L357.402 173.125L364.368 141.776L356.904 101.47H353.919L347.947 131.824Z" fill="#2F2E41"/>
<path d="M305.651 249.756C305.651 249.756 298.685 251.746 296.197 252.244C293.709 252.741 297.69 262.196 297.69 262.196C297.69 262.196 300.178 275.134 300.675 277.622C301.173 280.11 304.656 288.569 309.135 289.564C313.613 290.559 310.627 272.148 310.627 272.148C310.627 272.148 312.618 266.177 312.618 264.186C312.618 262.196 309.632 263.191 309.632 263.191C301.671 262.196 305.651 249.756 305.651 249.756Z" fill="#2F2E41"/>
<path d="M322.073 288.071C322.57 291.057 321.575 291.057 329.537 292.052C337.498 293.047 335.508 286.579 335.508 286.579C335.175 283.529 334.508 280.525 333.517 277.622C332.025 273.641 324.063 278.617 324.063 278.617C324.063 278.617 321.575 285.086 322.073 288.071Z" fill="#2F2E41"/>
<path d="M333.53 77.9333L333.789 82.3587C333.789 82.3587 337 75.0978 337.498 67.6338C337.995 60.1698 329.536 58.677 324.56 58.1794C319.584 57.6818 311.125 61.165 311.125 65.1458C311.125 69.1266 320.082 68.1314 323.565 67.1362C327.048 66.141 328.541 74.6002 328.541 74.6002L330.531 75.0978L333.53 77.9333Z" fill="#2F2E41"/>
<path d="M317.146 95.0423L320.083 91.5186L328.542 98.4848L320.083 104.456L317.146 95.0423Z" fill="#D0CDE1"/>
<path d="M337.996 94.0066L334.512 89.5283L328.541 98.4849L336.005 103.959L337.996 94.0066Z" fill="#D0CDE1"/>
<path d="M306.647 130.829L308.637 149.738L304.657 161.183L302.169 172.13C302.169 172.13 302.169 182.58 312.121 183.077C322.073 183.575 330.532 151.729 330.532 151.729C330.532 151.729 332.025 158.695 333.02 162.676C334.015 166.657 350.934 182.58 350.934 182.58C350.934 182.58 354.914 182.082 358.398 174.121C361.881 166.159 351.431 158.695 351.431 158.695L348.446 148.245L349.441 135.308L356.407 101.471L335.757 90.7725L337.996 119.385L330.532 141.777L319.336 92.2653L315.604 95.0021L299.681 101.471L306.647 130.829Z" fill="#2F2E41"/>
<path d="M109.99 206.092C109.006 206.084 108.011 206.078 107.034 206.047L107.064 205.062C108.031 205.092 109.021 205.105 109.991 205.106C110.965 205.106 111.958 205.09 112.943 205.058L112.974 206.044C111.979 206.076 110.975 206.092 109.99 206.092ZM101.106 205.676C99.1432 205.49 97.1607 205.238 95.2141 204.927L95.3696 203.954C97.2955 204.261 99.2569 204.51 101.199 204.694L101.106 205.676ZM118.901 205.665L118.807 204.684C120.749 204.498 122.71 204.246 124.636 203.936L124.793 204.91C122.846 205.223 120.864 205.477 118.901 205.665ZM89.3816 203.802C87.4595 203.366 85.5255 202.862 83.6338 202.303L83.9133 201.357C85.7848 201.91 87.698 202.409 89.5997 202.84L89.3816 203.802ZM130.624 203.778L130.405 202.817C132.311 202.382 134.223 201.881 136.089 201.326L136.37 202.272C134.484 202.832 132.551 203.339 130.624 203.778ZM77.9939 200.437C76.1392 199.755 74.2835 199.005 72.4784 198.206L72.8776 197.305C74.6632 198.095 76.4989 198.837 78.3338 199.511L77.9939 200.437ZM142.007 200.398L141.666 199.473C143.49 198.801 145.319 198.059 147.103 197.267L147.504 198.169C145.7 198.969 143.851 199.719 142.007 200.398ZM67.1202 195.626C65.3748 194.715 63.6318 193.732 61.9401 192.707L62.4514 191.863C64.1253 192.879 65.8495 193.85 67.5764 194.751L67.1202 195.626ZM152.847 195.589L152.39 194.716C154.113 193.815 155.834 192.844 157.503 191.829L158.015 192.672C156.328 193.697 154.589 194.678 152.847 195.589ZM56.9591 189.463C55.3425 188.334 53.7404 187.138 52.1967 185.907L52.8116 185.136C54.3389 186.354 55.9242 187.538 57.5234 188.654L56.9591 189.463ZM162.988 189.427L162.423 188.619C164.022 187.502 165.605 186.318 167.128 185.102L167.744 185.872C166.204 187.102 164.604 188.298 162.988 189.427ZM47.6714 182.055C46.2101 180.728 44.7734 179.338 43.4019 177.924L44.1096 177.238C45.4667 178.637 46.8883 180.012 48.3345 181.325L47.6714 182.055ZM172.264 182.021L171.601 181.291C173.043 179.981 174.464 178.604 175.823 177.202L176.531 177.888C175.158 179.306 173.722 180.696 172.264 182.021ZM39.4045 173.531C38.125 172.031 36.8775 170.47 35.6961 168.893L36.4855 168.302C37.6543 169.863 38.8886 171.407 40.1547 172.891L39.4045 173.531ZM180.527 173.49L179.777 172.851C181.043 171.365 182.277 169.819 183.446 168.256L184.236 168.847C183.054 170.426 181.807 171.989 180.527 173.49ZM32.2918 164.028C31.213 162.376 30.1749 160.67 29.2062 158.957L30.0646 158.472C31.0228 160.166 32.0501 161.854 33.1175 163.489L32.2918 164.028ZM187.641 163.975L186.815 163.436C187.883 161.799 188.91 160.108 189.868 158.409L190.727 158.894C189.759 160.611 188.72 162.32 187.641 163.975ZM26.4525 153.701C25.5945 151.926 24.7839 150.102 24.0434 148.279L24.9568 147.908C25.6896 149.711 26.4915 151.515 27.3404 153.271L26.4525 153.701ZM193.482 153.623L192.594 153.195C193.443 151.437 194.245 149.627 194.979 147.816L195.892 148.186C195.151 150.017 194.34 151.846 193.482 153.623ZM21.985 142.707C21.3613 140.834 20.7914 138.918 20.2912 137.012L21.245 136.762C21.7397 138.647 22.3036 140.542 22.9206 142.395L21.985 142.707ZM197.947 142.602L197.011 142.292C197.624 140.442 198.186 138.546 198.68 136.657L199.634 136.906C199.135 138.816 198.567 140.732 197.947 142.602ZM18.9683 131.222C18.5915 129.287 18.2728 127.315 18.0207 125.358L18.9986 125.232C19.248 127.168 19.5634 129.119 19.9361 131.033L18.9683 131.222ZM200.95 131.113L199.982 130.927C200.352 129.013 200.665 127.061 200.912 125.124L201.891 125.249C201.641 127.207 201.324 129.18 200.95 131.113ZM17.4506 119.447C17.3242 117.481 17.259 115.483 17.2568 113.509L18.2429 113.508C18.2451 115.462 18.3096 117.438 18.4348 119.383L17.4506 119.447ZM202.454 119.336L201.47 119.274C201.593 117.331 201.655 115.354 201.655 113.4L201.654 113.184H202.64L202.641 113.397C202.641 115.375 202.578 117.372 202.454 119.336ZM18.4211 107.634L17.4369 107.573C17.5592 105.604 17.7463 103.614 17.993 101.659L18.9714 101.783C18.7271 103.717 18.5419 105.686 18.4211 107.634ZM201.456 107.31C201.328 105.361 201.136 103.393 200.885 101.462L201.863 101.334C202.117 103.287 202.311 105.275 202.441 107.246L201.456 107.31ZM19.8949 95.9798L18.9267 95.7934C19.2986 93.8581 19.7392 91.9088 20.2356 89.9997L21.1899 90.2477C20.6988 92.1365 20.263 94.0649 19.8949 95.9798ZM199.94 95.6618C199.565 93.7459 199.122 91.819 198.625 89.9342L199.578 89.6829C200.081 91.5879 200.528 93.5355 200.908 95.472L199.94 95.6618ZM22.8524 84.6109L21.916 84.3017C22.5349 82.428 23.2239 80.5485 23.9642 78.7153L24.8785 79.0846C24.1462 80.8981 23.4647 82.7574 22.8524 84.6109ZM196.943 84.3034C196.324 82.4526 195.637 80.5986 194.901 78.7928L195.814 78.4206C196.558 80.2459 197.253 82.1199 197.879 83.9905L196.943 84.3034ZM27.2571 73.7016L26.3683 73.274C27.2236 71.4959 28.1486 69.7216 29.1171 68.0007L29.9765 68.4846C29.0181 70.187 28.1033 71.9422 27.2571 73.7016ZM192.511 73.4326C191.662 71.6817 190.744 69.933 189.781 68.235L190.639 67.7487C191.612 69.4647 192.54 71.2325 193.398 73.0027L192.511 73.4326ZM33.0244 63.4538L32.1976 62.916C33.273 61.2631 34.4168 59.6224 35.5969 58.04L36.3875 58.6293C35.2199 60.1951 34.0882 61.8182 33.0244 63.4538ZM186.722 63.2217C185.655 61.5922 184.52 59.9741 183.348 58.4127L184.137 57.8209C185.321 59.3992 186.469 61.0346 187.547 62.6815L186.722 63.2217ZM40.0512 54.0309L39.3001 53.3924C40.5772 51.8899 41.9198 50.4089 43.2906 48.9907L43.9999 49.6758C42.6435 51.0791 41.3151 52.5445 40.0512 54.0309ZM179.673 53.8277C178.406 52.3454 177.073 50.8844 175.713 49.4852L176.42 48.7981C177.795 50.212 179.141 51.6887 180.423 53.1868L179.673 53.8277ZM48.217 45.5815L47.553 44.8525C49.0121 43.5234 50.5317 42.2255 52.0691 40.9953L52.6854 41.7652C51.1642 42.9824 49.6607 44.2666 48.217 45.5815ZM171.483 45.4026C170.037 44.0937 168.53 42.8134 167.002 41.5977L167.616 40.8258C169.16 42.0548 170.684 43.3486 172.145 44.6717L171.483 45.4026ZM57.3869 38.2419L56.8212 37.4345C58.4346 36.3037 60.1064 35.2105 61.7899 34.1849L62.3029 35.027C60.6374 36.0418 58.9833 37.1234 57.3869 38.2419ZM162.286 38.085C160.681 36.9677 159.022 35.8896 157.354 34.8807L157.865 34.0371C159.55 35.0567 161.227 36.1463 162.849 37.2756L162.286 38.085ZM67.4124 32.1343L66.9545 31.2608C68.6978 30.3465 70.4947 29.4765 72.2947 28.675L72.6958 29.5759C70.9148 30.3686 69.1374 31.2296 67.4124 32.1343ZM152.226 31.999C150.494 31.0976 148.71 30.2408 146.922 29.4521L147.32 28.5498C149.127 29.3469 150.931 30.2131 152.681 31.1241L152.226 31.999ZM78.1306 27.3639L77.7883 26.439C79.6372 25.755 81.533 25.1223 83.4234 24.5588L83.705 25.5039C81.8349 26.0612 79.9595 26.6872 78.1306 27.3639ZM141.463 27.252C139.63 26.5815 137.752 25.9623 135.882 25.412L136.16 24.4658C138.051 25.0222 139.949 25.6481 141.802 26.3261L141.463 27.252ZM89.3878 24.0077L89.1677 23.0467C91.0862 22.6071 93.0476 22.224 94.9974 21.9075L95.1553 22.881C93.2262 23.194 91.2858 23.5729 89.3878 24.0077ZM130.193 23.936C128.292 23.5075 126.35 23.1353 124.422 22.8295L124.576 21.8555C126.525 22.1646 128.488 22.5409 130.41 22.974L130.193 23.936ZM100.983 22.1263L100.888 21.145C102.846 20.9551 104.84 20.8253 106.815 20.7596L106.847 21.7452C104.893 21.8102 102.92 21.9385 100.983 22.1263ZM118.591 22.0957C116.651 21.9145 114.678 21.7931 112.726 21.7351L112.755 20.7495C114.728 20.8083 116.722 20.9308 118.683 21.114L118.591 22.0957Z" fill="#D0CDE1"/>
<path d="M106.497 46.3461C119.295 46.3461 129.67 35.9712 129.67 23.173C129.67 10.3749 119.295 0 106.497 0C93.6991 0 83.3242 10.3749 83.3242 23.173C83.3242 35.9712 93.6991 46.3461 106.497 46.3461Z" fill="#6C63FF"/>
<path d="M196.232 109.455C209.03 109.455 219.405 99.0805 219.405 86.2824C219.405 73.4843 209.03 63.1094 196.232 63.1094C183.434 63.1094 173.059 73.4843 173.059 86.2824C173.059 99.0805 183.434 109.455 196.232 109.455Z" fill="#6C63FF"/>
<path d="M168.128 206.092C180.926 206.092 191.301 195.717 191.301 182.919C191.301 170.121 180.926 159.746 168.128 159.746C155.33 159.746 144.955 170.121 144.955 182.919C144.955 195.717 155.33 206.092 168.128 206.092Z" fill="#6C63FF"/>
<path d="M56.7004 210.037C69.4985 210.037 79.8734 199.662 79.8734 186.863C79.8734 174.065 69.4985 163.69 56.7004 163.69C43.9023 163.69 33.5273 174.065 33.5273 186.863C33.5273 199.662 43.9023 210.037 56.7004 210.037Z" fill="#6C63FF"/>
<path d="M23.173 109.455C35.9712 109.455 46.3461 99.0805 46.3461 86.2824C46.3461 73.4843 35.9712 63.1094 23.173 63.1094C10.3749 63.1094 0 73.4843 0 86.2824C0 99.0805 10.3749 109.455 23.173 109.455Z" fill="#6C63FF"/>
<path d="M116.428 21.3253H108.345C107.61 21.3253 106.905 21.0333 106.385 20.5136C105.865 19.9939 105.574 19.289 105.574 18.554V10.4712C105.574 10.4408 105.568 10.4108 105.556 10.3828C105.544 10.3548 105.527 10.3293 105.506 10.3079C105.484 10.2864 105.459 10.2694 105.431 10.2578C105.403 10.2462 105.373 10.2402 105.343 10.2402H100.031C99.051 10.2402 98.1111 10.6295 97.4182 11.3225C96.7252 12.0154 96.3359 12.9553 96.3359 13.9353V32.4104C96.3359 33.3903 96.7252 34.3302 97.4182 35.0231C98.1111 35.7161 99.051 36.1054 100.031 36.1054H112.964C113.944 36.1054 114.883 35.7161 115.576 35.0231C116.269 34.3302 116.659 33.3903 116.659 32.4104V21.5562C116.659 21.5259 116.653 21.4959 116.641 21.4679C116.629 21.4398 116.612 21.4144 116.591 21.3929C116.569 21.3715 116.544 21.3545 116.516 21.3429C116.488 21.3313 116.458 21.3253 116.428 21.3253ZM111.116 30.5629H101.878C101.633 30.5629 101.399 30.4655 101.225 30.2923C101.052 30.1191 100.955 29.8841 100.955 29.6391C100.955 29.3941 101.052 29.1591 101.225 28.9859C101.399 28.8127 101.633 28.7153 101.878 28.7153H111.116C111.361 28.7153 111.596 28.8127 111.769 28.9859C111.942 29.1591 112.04 29.3941 112.04 29.6391C112.04 29.8841 111.942 30.1191 111.769 30.2923C111.596 30.4655 111.361 30.5629 111.116 30.5629ZM111.116 25.9441H101.878C101.633 25.9441 101.399 25.8468 101.225 25.6735C101.052 25.5003 100.955 25.2653 100.955 25.0203C100.955 24.7753 101.052 24.5404 101.225 24.3671C101.399 24.1939 101.633 24.0966 101.878 24.0966H111.116C111.361 24.0966 111.596 24.1939 111.769 24.3671C111.942 24.5404 112.04 24.7753 112.04 25.0203C112.04 25.2653 111.942 25.5003 111.769 25.6735C111.596 25.8468 111.361 25.9441 111.116 25.9441Z" fill="white"/>
<path d="M115.921 19.2813L107.618 10.9784C107.602 10.9624 107.581 10.9514 107.559 10.947C107.536 10.9426 107.513 10.9449 107.492 10.9536C107.471 10.9623 107.453 10.977 107.441 10.9959C107.428 11.0148 107.421 11.037 107.421 11.0598V18.5544C107.421 18.7994 107.518 19.0343 107.691 19.2075C107.865 19.3808 108.1 19.4781 108.345 19.4781H115.839C115.862 19.478 115.884 19.4712 115.903 19.4585C115.922 19.4458 115.937 19.4278 115.945 19.4068C115.954 19.3857 115.956 19.3626 115.952 19.3402C115.948 19.3179 115.937 19.2974 115.921 19.2813Z" fill="white"/>
<path d="M171.479 178.354C171.195 178.354 170.92 178.453 170.7 178.633C170.481 178.814 170.331 179.064 170.275 179.343C170.22 179.622 170.263 179.911 170.397 180.162C170.531 180.412 170.748 180.608 171.011 180.717C171.273 180.826 171.565 180.84 171.837 180.757C172.109 180.675 172.344 180.5 172.501 180.264C172.659 180.028 172.73 179.744 172.702 179.461C172.674 179.178 172.549 178.914 172.348 178.713C172.234 178.599 172.099 178.509 171.949 178.447C171.8 178.386 171.641 178.354 171.479 178.354Z" fill="white"/>
<path d="M178.316 173.443V173.439C178.277 173.268 178.192 173.112 178.069 172.988C177.946 172.863 177.79 172.776 177.62 172.735C176.249 172.401 174.092 172.757 171.702 173.714C169.403 174.608 167.3 175.94 165.509 177.635C165.02 178.122 164.566 178.642 164.15 179.192C163.23 179.128 162.308 179.277 161.455 179.625C158.798 180.794 158.039 183.786 157.837 185.015C157.808 185.189 157.819 185.368 157.871 185.538C157.922 185.707 158.011 185.862 158.132 185.992C158.254 186.121 158.403 186.22 158.568 186.282C158.734 186.344 158.912 186.367 159.088 186.349H159.094L162.054 186.026C162.057 186.064 162.061 186.098 162.065 186.13C162.103 186.491 162.264 186.827 162.52 187.084L163.965 188.529C164.22 188.786 164.557 188.947 164.917 188.985L165.016 188.995L164.694 191.951V191.957C164.679 192.107 164.693 192.259 164.736 192.404C164.779 192.549 164.851 192.684 164.946 192.801C165.041 192.918 165.158 193.016 165.291 193.087C165.424 193.159 165.57 193.204 165.72 193.22C165.756 193.223 165.791 193.225 165.827 193.226C165.891 193.226 165.955 193.221 166.018 193.21C167.253 193.011 170.244 192.262 171.41 189.591C171.755 188.74 171.904 187.823 171.845 186.906C172.397 186.491 172.919 186.037 173.407 185.547C175.102 183.773 176.435 181.686 177.332 179.403C178.284 177.04 178.643 174.867 178.316 173.443ZM173.39 181.49C173.012 181.868 172.531 182.126 172.006 182.231C171.482 182.335 170.938 182.282 170.444 182.078C169.949 181.873 169.527 181.527 169.229 181.082C168.932 180.638 168.773 180.115 168.773 179.58C168.773 179.045 168.931 178.522 169.228 178.078C169.525 177.633 169.947 177.286 170.441 177.081C170.935 176.876 171.479 176.822 172.003 176.926C172.528 177.03 173.01 177.288 173.388 177.666L173.39 177.668C173.897 178.167 174.185 178.847 174.19 179.558C174.196 180.27 173.918 180.954 173.419 181.461L173.39 181.49Z" fill="white"/>
<path d="M163.799 188.921C163.621 188.899 163.441 188.942 163.293 189.044C162.999 189.245 162.704 189.444 162.405 189.637C162.276 189.721 162.122 189.758 161.969 189.743C161.816 189.729 161.672 189.663 161.56 189.557C161.449 189.451 161.376 189.31 161.354 189.158C161.332 189.006 161.362 188.85 161.439 188.717L161.998 187.751C162.078 187.634 162.123 187.496 162.126 187.355C162.13 187.213 162.093 187.074 162.019 186.953C161.946 186.832 161.839 186.734 161.711 186.673C161.584 186.611 161.441 186.587 161.301 186.605C160.68 186.683 160.103 186.966 159.661 187.408C159.493 187.577 158.981 188.089 158.705 190.043C158.627 190.604 158.577 191.168 158.557 191.735C158.554 191.831 158.571 191.927 158.606 192.018C158.64 192.108 158.692 192.19 158.759 192.26C158.826 192.331 158.905 192.387 158.994 192.426C159.082 192.465 159.177 192.487 159.274 192.489C159.28 192.49 159.287 192.49 159.293 192.49H159.311C159.878 192.47 160.443 192.42 161.005 192.342C162.959 192.066 163.471 191.554 163.64 191.385C164.084 190.943 164.366 190.363 164.44 189.741C164.464 189.547 164.409 189.352 164.289 189.198C164.169 189.044 163.993 188.945 163.799 188.921Z" fill="white"/>
<path d="M48.7253 199.456H47.0463C46.7124 199.456 46.3921 199.323 46.1559 199.087C45.9198 198.851 45.7871 198.53 45.7871 198.196V190.641C45.7871 190.307 45.9198 189.987 46.1559 189.751C46.3921 189.515 46.7124 189.382 47.0463 189.382H48.7253C49.0593 189.382 49.3796 189.515 49.6157 189.751C49.8519 189.987 49.9845 190.307 49.9845 190.641V198.196C49.9845 198.53 49.8519 198.851 49.6157 199.087C49.3796 199.323 49.0593 199.456 48.7253 199.456Z" fill="white"/>
<path d="M60.4773 199.456H58.7983C58.4643 199.456 58.144 199.323 57.9079 199.087C57.6717 198.851 57.5391 198.531 57.5391 198.197V185.604C57.5391 185.27 57.6717 184.95 57.9079 184.714C58.144 184.478 58.4643 184.345 58.7983 184.345H60.4773C60.8112 184.345 61.1315 184.478 61.3677 184.714C61.6038 184.95 61.7365 185.27 61.7365 185.604V198.197C61.7365 198.531 61.6038 198.851 61.3677 199.087C61.1315 199.323 60.8112 199.456 60.4773 199.456Z" fill="white"/>
<path d="M66.3542 199.456H64.6752C64.3413 199.456 64.021 199.323 63.7848 199.087C63.5487 198.851 63.416 198.531 63.416 198.197V179.728C63.416 179.394 63.5487 179.074 63.7848 178.838C64.021 178.601 64.3413 178.469 64.6752 178.469H66.3542C66.6882 178.469 67.0085 178.601 67.2446 178.838C67.4808 179.074 67.6134 179.394 67.6134 179.728V198.197C67.6134 198.531 67.4808 198.851 67.2446 199.087C67.0085 199.323 66.6882 199.456 66.3542 199.456Z" fill="white"/>
<path d="M54.6013 199.456H52.9223C52.5883 199.456 52.2681 199.323 52.0319 199.087C51.7958 198.851 51.6631 198.53 51.6631 198.196V175.53C51.6631 175.196 51.7958 174.876 52.0319 174.64C52.2681 174.404 52.5883 174.271 52.9223 174.271H54.6013C54.9352 174.271 55.2555 174.404 55.4917 174.64C55.7278 174.876 55.8605 175.196 55.8605 175.53V198.196C55.8605 198.362 55.8279 198.525 55.7647 198.678C55.7014 198.831 55.6086 198.97 55.4917 199.087C55.3747 199.204 55.2359 199.296 55.0832 199.36C54.9304 199.423 54.7666 199.456 54.6013 199.456Z" fill="white"/>
<path d="M197.341 85.6756L196.141 84.4756C195.867 84.2008 195.494 84.046 195.106 84.0449C194.717 84.0439 194.344 84.1968 194.068 84.4701L185.728 92.1667C185.422 92.4377 185.235 92.8182 185.206 93.2261C185.198 93.4286 185.231 93.6309 185.303 93.8201C185.376 94.0093 185.487 94.1815 185.63 94.3259L187.421 96.1374L187.425 96.1406C187.701 96.4166 188.076 96.5721 188.467 96.5734H188.521C188.724 96.562 188.922 96.5108 189.105 96.4228C189.287 96.3347 189.451 96.2115 189.586 96.0602L197.336 87.7586C197.613 87.4841 197.769 87.1108 197.771 86.7209C197.773 86.331 197.619 85.9565 197.345 85.6796L197.341 85.6756Z" fill="white"/>
<path d="M206.982 83.2506L206.967 83.2364L205.393 81.6781C205.301 81.5862 205.191 81.5134 205.071 81.4641C204.95 81.4147 204.821 81.3897 204.691 81.3905C204.48 81.3907 204.275 81.4572 204.103 81.5807C204.103 81.5609 204.106 81.5416 204.108 81.5246C204.171 81.1222 204.086 80.7104 203.869 80.366C203.522 79.8985 203.141 79.4572 202.729 79.0456L202.726 79.0419C201.575 77.9377 200.222 77.0652 198.742 76.472C197.968 76.1544 197.139 75.9913 196.303 75.9919C195.22 75.9821 194.168 76.3506 193.328 77.0338C193.089 77.2622 192.871 77.5116 192.677 77.779C192.584 77.9072 192.535 78.0619 192.537 78.2201C192.539 78.3784 192.592 78.5317 192.689 78.6573C192.785 78.783 192.919 78.8742 193.071 78.9174C193.224 78.9606 193.386 78.9535 193.534 78.8972C193.663 78.8491 193.794 78.8087 193.928 78.7764C194.206 78.7175 194.492 78.6997 194.776 78.7236C195.363 78.7849 195.927 78.9916 196.415 79.3249C196.689 79.5555 196.907 79.8452 197.052 80.1722C197.197 80.4992 197.266 80.855 197.254 81.2127C197.05 81.7937 196.738 82.3311 196.335 82.7967C196.228 82.9384 196.175 83.1142 196.188 83.2916C196.2 83.469 196.276 83.6359 196.402 83.7615L197.983 85.3423C198.116 85.4755 198.294 85.5527 198.482 85.558C198.67 85.5633 198.853 85.4963 198.993 85.3708C199.44 84.9716 200.121 84.3698 200.359 84.2223C200.563 84.0862 200.793 83.9953 201.035 83.9558C201.215 83.9382 201.396 83.9764 201.553 84.0652C201.554 84.073 201.553 84.081 201.551 84.0885C201.548 84.096 201.544 84.1029 201.539 84.1088L201.455 84.1883L201.442 84.2011C201.256 84.3862 201.151 84.6375 201.151 84.8997C201.15 85.1619 201.254 85.4136 201.439 85.5993L201.444 85.6042L203.018 87.1621C203.11 87.2539 203.22 87.3266 203.34 87.3759C203.461 87.4252 203.59 87.4501 203.72 87.4492C203.981 87.4496 204.232 87.3473 204.419 87.1644L206.969 84.6459C206.978 84.6371 206.986 84.6279 206.995 84.6187C207.166 84.4313 207.259 84.186 207.257 83.9322C207.255 83.6784 207.156 83.4349 206.982 83.2506Z" fill="white"/>
<path d="M26.8524 84.9029C26.6705 84.9029 26.4927 84.849 26.3414 84.7479C26.1901 84.6469 26.0722 84.5032 26.0026 84.3351C25.933 84.1671 25.9148 83.9821 25.9503 83.8037C25.9858 83.6253 26.0734 83.4614 26.202 83.3327L28.311 81.2237L26.202 79.1146C26.0295 78.9421 25.9326 78.7082 25.9326 78.4642C25.9326 78.2203 26.0295 77.9863 26.202 77.8138C26.3745 77.6413 26.6085 77.5444 26.8524 77.5444C27.0964 77.5444 27.3303 77.6413 27.5028 77.8138L30.2623 80.5733C30.3477 80.6587 30.4154 80.7601 30.4617 80.8717C30.5079 80.9833 30.5317 81.1029 30.5317 81.2237C30.5317 81.3445 30.5079 81.4641 30.4617 81.5757C30.4154 81.6873 30.3477 81.7887 30.2623 81.8741L27.5028 84.6335C27.4175 84.7191 27.3161 84.7869 27.2045 84.8331C27.0929 84.8794 26.9732 84.9031 26.8524 84.9029Z" fill="white"/>
<path d="M12.1356 87.6622C12.0148 87.6622 11.8952 87.6385 11.7836 87.5922C11.672 87.546 11.5706 87.4783 11.4852 87.3928C11.3998 87.3074 11.3321 87.206 11.2858 87.0944C11.2396 86.9828 11.2158 86.8632 11.2158 86.7424V85.8226C11.223 84.3616 11.8064 82.9624 12.8393 81.9291C13.8721 80.8957 15.271 80.3116 16.732 80.3037H28.6924C28.9363 80.3037 29.1703 80.4006 29.3428 80.5731C29.5153 80.7456 29.6122 80.9796 29.6122 81.2235C29.6122 81.4675 29.5153 81.7014 29.3428 81.8739C29.1703 82.0464 28.9363 82.1433 28.6924 82.1433H16.7347C15.7602 82.1491 14.8273 82.539 14.1385 83.2283C13.4497 83.9177 13.0605 84.8509 13.0555 85.8254V86.7424C13.0555 86.8632 13.0317 86.9828 12.9854 87.0944C12.9392 87.206 12.8715 87.3074 12.7861 87.3928C12.7006 87.4782 12.5992 87.546 12.4876 87.5922C12.376 87.6385 12.2564 87.6622 12.1356 87.6622Z" fill="white"/>
<path d="M19.4937 95.021C19.3729 95.0212 19.2533 94.9974 19.1417 94.9512C19.03 94.905 18.9287 94.8371 18.8433 94.7516L16.0839 91.9921C15.9985 91.9067 15.9307 91.8053 15.8845 91.6937C15.8382 91.5821 15.8145 91.4625 15.8145 91.3417C15.8145 91.2209 15.8382 91.1013 15.8845 90.9897C15.9307 90.8781 15.9985 90.7767 16.0839 90.6913L18.8433 87.9319C19.0159 87.7597 19.2498 87.663 19.4936 87.6631C19.7374 87.6632 19.9711 87.7601 20.1435 87.9325C20.3159 88.1049 20.4128 88.3387 20.4129 88.5825C20.413 88.8263 20.3164 89.0601 20.1441 89.2327L18.0351 91.3417L20.1441 93.4508C20.2728 93.5794 20.3604 93.7433 20.3959 93.9217C20.4313 94.1002 20.4131 94.2851 20.3435 94.4532C20.2739 94.6212 20.156 94.7649 20.0047 94.866C19.8535 94.967 19.6757 95.021 19.4937 95.021Z" fill="white"/>
<path d="M17.6542 92.2614C17.4102 92.2614 17.1763 92.1645 17.0038 91.992C16.8313 91.8195 16.7344 91.5855 16.7344 91.3416C16.7344 91.0976 16.8313 90.8636 17.0038 90.6911C17.1763 90.5186 17.4102 90.4217 17.6542 90.4217H29.6118C30.5863 90.416 31.5192 90.0261 32.208 89.3367C32.8968 88.6474 33.286 87.7142 33.2911 86.7397V85.8227C33.2911 85.5787 33.388 85.3447 33.5605 85.1722C33.733 84.9997 33.9669 84.9028 34.2109 84.9028C34.4548 84.9028 34.6888 84.9997 34.8613 85.1722C35.0338 85.3447 35.1307 85.5787 35.1307 85.8227V86.7425C35.1235 88.2035 34.5401 89.6026 33.5072 90.636C32.4744 91.6694 31.0755 92.2534 29.6145 92.2614L17.6542 92.2614Z" fill="white"/>
</g>
<defs>
<clipPath id="clip0_418_1852">
<rect width="365.266" height="300" fill="white"/>
</clipPath>
</defs>
</svg>
