<svg width="384" height="300" viewBox="0 0 384 300" fill="none" xmlns="http://www.w3.org/2000/svg">
<g clip-path="url(#clip0_416_1720)">
<path d="M67.5707 247.225C61.1583 242.919 55.1503 233.08 60.4702 224.861C63.1086 220.784 67.7122 219.277 72.0482 218.833C78.0459 218.219 84.1129 219.475 89.691 221.372C96.125 223.561 102.164 226.739 108.148 229.942C114.055 233.104 119.992 236.189 126.058 239.026C138.011 244.613 150.307 249.433 162.872 253.458C175.19 257.412 187.744 260.588 200.46 262.967C206.772 264.145 213.124 265.116 219.517 265.879C225.484 266.589 231.499 267.236 237.547 267.211C245.515 267.177 258.814 266.249 261.742 256.053C263.295 250.647 261.193 245.024 258.566 240.652C255.39 235.366 251.03 231.001 246.752 226.745C226.853 206.95 206.907 187.207 186.913 167.518C182.258 162.91 177.54 158.353 173.213 153.394C169.161 148.751 165.301 143.689 162.871 137.825C160.749 132.703 159.506 126.455 161.802 120.91C163.706 116.311 167.803 113.378 172.087 111.663C182.693 107.418 194.827 108.757 205.356 111.089C218.437 113.985 230.943 118.882 244.006 121.848C254.554 124.242 266.328 125.51 277.077 121.902C281.198 120.519 285.245 118.247 288.012 114.562C290.722 110.951 291.673 106.43 291.243 102.044C290.735 96.8671 288.578 92.0586 285.997 87.8029C282.918 82.8429 279.16 78.3377 274.833 74.4182C265.568 65.8468 254.934 59.1144 245.013 51.4383C240.147 47.6738 235.286 43.7314 231.267 38.9599C227.861 34.9173 224.389 29.9053 223.825 24.2487C222.663 12.5778 236.772 11.4044 244.341 11.829C249.499 12.1912 254.624 12.9176 259.68 14.003C260.762 14.2193 260.982 12.3874 259.906 12.1721C254.594 11.11 249.22 10.191 243.771 9.95871C239.183 9.76312 234.296 9.95252 229.893 11.8435C226.196 13.4317 223.075 16.5216 222.245 20.746C221.263 25.7443 223.517 30.7718 225.937 34.7205C229.136 39.9423 233.439 44.2174 237.977 48.1046C242.757 52.1986 247.82 55.9121 252.892 59.596C263.029 66.9574 273.797 74.1954 281.535 84.4568C286.947 91.6349 293.414 103.655 287.054 112.939C284.231 117.06 279.65 119.355 275.182 120.614C269.783 122.135 264.167 122.421 258.696 122.135C233.188 120.801 210.425 105.737 184.451 107.312C175.619 107.848 164.074 110.594 160.131 120.472C158.083 125.603 158.743 131.301 160.381 136.24C162.342 142.156 165.852 147.336 169.658 152.005C173.684 156.945 178.177 161.428 182.67 165.881C187.671 170.837 192.675 175.789 197.681 180.738L228.053 210.799L243.143 225.735C247.749 230.293 252.535 234.809 256.2 240.292C259.201 244.78 262.23 251.405 259.52 257.102C257.367 261.626 252.301 263.519 247.994 264.426C242.417 265.599 236.693 265.531 231.118 265.155C224.688 264.721 218.284 263.944 211.928 263.011C198.84 261.08 185.894 258.287 173.175 254.648C160.412 251.007 147.893 246.554 135.696 241.318C129.531 238.671 123.455 235.823 117.469 232.775C111.3 229.63 105.292 226.153 99.0272 223.203C93.3604 220.536 87.4482 218.332 81.2217 217.358C76.0227 216.545 70.2305 216.453 65.1616 218.709C63.3705 219.498 61.7654 220.654 60.4505 222.103C59.1356 223.552 58.1404 225.262 57.5297 227.121C56.3943 230.915 56.6028 234.984 58.12 238.641C59.8314 242.77 62.751 246.285 66.4956 248.724C67.4117 249.339 68.4908 247.843 67.5707 247.225Z" fill="#F2F2F2"/>
<path d="M383.092 47.6779H242.396V0H383.092V47.6779Z" fill="white"/>
<path d="M292.437 149.418H156.882V240.87H292.437V149.418Z" fill="white"/>
<path d="M292.904 241.338H156.414V148.951H292.904V241.338ZM157.349 240.403H291.969V149.886H157.349V240.403Z" fill="#3F3D56"/>
<path d="M168.337 220.823H280.981V156.673H168.337V220.823Z" fill="#E6E6E6"/>
<path d="M201.474 196.558C207.71 196.558 212.764 191.504 212.764 185.268C212.764 179.033 207.71 173.979 201.474 173.979C195.239 173.979 190.185 179.033 190.185 185.268C190.185 191.504 195.239 196.558 201.474 196.558Z" fill="#6C63FF"/>
<path d="M236.878 220.06H181.493C181.424 220.061 181.354 220.055 181.286 220.043L207.481 174.671C207.64 174.388 207.872 174.153 208.153 173.989C208.433 173.826 208.752 173.74 209.077 173.74C209.401 173.74 209.72 173.826 210.001 173.989C210.281 174.153 210.513 174.388 210.673 174.671L228.253 205.119L229.095 206.576L236.878 220.06Z" fill="#3F3D56"/>
<path opacity="0.2" d="M236.879 220.06H217.969L227.251 206.576L227.92 205.605L228.254 205.119L229.096 206.576L236.879 220.06Z" fill="black"/>
<path d="M267.716 220.06H219.812L229.095 206.576L229.763 205.605L241.859 188.033C242.073 187.765 242.341 187.544 242.646 187.386C242.951 187.228 243.285 187.136 243.628 187.115C243.97 187.095 244.313 187.147 244.635 187.267C244.956 187.388 245.248 187.575 245.493 187.816C245.555 187.885 245.613 187.957 245.667 188.033L267.716 220.06Z" fill="#3F3D56"/>
<path d="M341.958 64.5054H204.066V131.348H341.958V64.5054Z" fill="white"/>
<path d="M226.467 96.6033C231.976 96.6033 236.442 92.1377 236.442 86.629C236.442 81.1204 231.976 76.6548 226.467 76.6548C220.959 76.6548 216.493 81.1204 216.493 86.629C216.493 92.1377 220.959 96.6033 226.467 96.6033Z" fill="#E6E6E6"/>
<path d="M249.503 79.9795C249.062 79.9795 248.639 80.1546 248.328 80.4664C248.016 80.7781 247.841 81.201 247.841 81.6419C247.841 82.0828 248.016 82.5056 248.328 82.8174C248.639 83.1291 249.062 83.3042 249.503 83.3042H327.872C328.312 83.3032 328.734 83.1276 329.045 82.816C329.356 82.5043 329.531 82.0821 329.531 81.6419C329.531 81.2017 329.356 80.7794 329.045 80.4678C328.734 80.1561 328.312 79.9805 327.872 79.9795H249.503Z" fill="#E6E6E6"/>
<path d="M249.504 89.9536C249.285 89.9529 249.069 89.9953 248.867 90.0783C248.665 90.1613 248.481 90.2833 248.326 90.4374C248.171 90.5915 248.048 90.7745 247.964 90.9762C247.88 91.1778 247.836 91.394 247.836 91.6125C247.835 91.8309 247.878 92.0474 247.961 92.2493C248.045 92.4513 248.167 92.6349 248.321 92.7896C248.475 92.9443 248.658 93.0671 248.86 93.151C249.062 93.2349 249.278 93.2781 249.497 93.2784H283.226C283.667 93.2784 284.09 93.1032 284.402 92.7915C284.713 92.4797 284.888 92.0569 284.888 91.616C284.888 91.1751 284.713 90.7523 284.402 90.4405C284.09 90.1288 283.667 89.9536 283.226 89.9536H249.504Z" fill="#E6E6E6"/>
<path d="M218.817 105.9C217.552 105.9 216.523 106.645 216.523 107.562C216.523 108.479 217.552 109.224 218.817 109.224H326.942C328.207 109.224 329.236 108.479 329.236 107.562C329.236 106.646 328.207 105.9 326.942 105.9H218.817Z" fill="#E6E6E6"/>
<path d="M218.817 115.874C217.552 115.874 216.523 116.62 216.523 117.536C216.523 118.453 217.552 119.199 218.817 119.199H326.942C328.207 119.199 329.236 118.453 329.236 117.536C329.236 116.62 328.207 115.874 326.942 115.874H218.817Z" fill="#E6E6E6"/>
<path d="M343.361 132.75H202.664V63.103H343.361V132.75ZM205.469 129.946H340.556V65.9076H205.469V129.946Z" fill="#E6E6E6"/>
<path d="M266.199 33.5C271.707 33.5 276.173 29.0344 276.173 23.5258C276.173 18.0171 271.707 13.5515 266.199 13.5515C260.69 13.5515 256.225 18.0171 256.225 23.5258C256.225 29.0344 260.69 33.5 266.199 33.5Z" fill="#E6E6E6"/>
<path d="M289.235 16.8765C288.794 16.8765 288.371 17.0516 288.059 17.3634C287.747 17.6751 287.572 18.098 287.572 18.5388C287.572 18.9797 287.747 19.4026 288.059 19.7143C288.371 20.0261 288.794 20.2012 289.235 20.2012H367.604C368.044 20.2002 368.466 20.0246 368.777 19.7129C369.088 19.4013 369.262 18.979 369.262 18.5388C369.262 18.0986 369.088 17.6764 368.777 17.3648C368.466 17.0531 368.044 16.8775 367.604 16.8765H289.235Z" fill="#E6E6E6"/>
<path d="M289.235 26.8506C289.017 26.8499 288.8 26.8923 288.598 26.9753C288.396 27.0583 288.212 27.1803 288.057 27.3344C287.903 27.4884 287.78 27.6715 287.695 27.8731C287.611 28.0748 287.568 28.291 287.567 28.5095C287.567 28.7279 287.61 28.9443 287.693 29.1463C287.776 29.3483 287.898 29.5319 288.052 29.6866C288.207 29.8413 288.39 29.9641 288.592 30.048C288.793 30.1318 289.01 30.1751 289.228 30.1753H322.958C323.398 30.1753 323.821 30.0002 324.133 29.6884C324.445 29.3767 324.62 28.9539 324.62 28.513C324.62 28.0721 324.445 27.6493 324.133 27.3375C323.821 27.0257 323.398 26.8506 322.958 26.8506H289.235Z" fill="#E6E6E6"/>
<path d="M383.092 47.6779H242.396V0H383.092V47.6779ZM245.2 44.8733H380.287V2.80458H245.2V44.8733Z" fill="#E6E6E6"/>
<path d="M86.1957 292.082L93.7616 292.082L97.3612 262.898L86.1943 262.899L86.1957 292.082Z" fill="#FFB8B8"/>
<path d="M108.354 299.107L84.5745 299.108L84.5741 289.921L101.395 289.92C103.24 289.92 105.01 290.653 106.315 291.958C107.62 293.263 108.353 295.033 108.353 296.878L108.354 299.107Z" fill="#2F2E41"/>
<path d="M55.955 292.082L63.5213 292.082L67.1205 262.898L55.9541 262.899L55.955 292.082Z" fill="#FFB8B8"/>
<path d="M78.1133 299.107L54.3342 299.108L54.3338 289.921L71.1543 289.92C72.9998 289.92 74.7698 290.653 76.0748 291.958C77.3799 293.263 78.1131 295.033 78.1132 296.878L78.1133 299.107Z" fill="#2F2E41"/>
<path d="M99.3775 207.953C98.7604 207.374 98.2778 206.667 97.9635 205.881C97.6492 205.096 97.511 204.251 97.5585 203.406C97.6061 202.562 97.8383 201.738 98.2387 200.993C98.6391 200.247 99.1981 199.599 99.8763 199.093L96.6348 186.272L103.945 182.402L108.269 200.572C109.043 201.768 109.352 203.206 109.137 204.614C108.922 206.022 108.197 207.302 107.101 208.212C106.005 209.121 104.614 209.598 103.19 209.55C101.767 209.502 100.41 208.934 99.3775 207.953Z" fill="#FFB8B8"/>
<path d="M53.2646 185.56L53.8817 228.76L54.4987 285.537L68.0761 284.303L74.8646 205.926L83.5046 284.303H97.5214L98.933 205.308L93.996 188.028L53.2646 185.56Z" fill="#2F2E41"/>
<path d="M79.8384 191.361C65.0656 191.362 51.4674 184.676 51.2838 184.584L51.1313 184.508L49.8916 154.756C49.5321 153.705 42.4532 132.959 41.2543 126.365C40.0396 119.685 57.6446 113.822 59.7824 113.136L60.2676 107.762L79.9961 105.636L82.4966 112.513L89.5744 115.166C90.3767 115.468 91.0408 116.053 91.4407 116.811C91.8406 117.569 91.9486 118.447 91.7441 119.279L87.8104 135.276L95.5481 188.202L95.3494 188.292C90.3916 190.531 85.0407 191.36 79.8384 191.361Z" fill="#6C63FF"/>
<path d="M97.4762 194.682L90.6297 166.496L83.209 132.485L86.9758 115.533H90.1962C90.2553 115.533 96.1074 115.621 97.3675 123.18C98.5878 130.503 102.268 153.806 102.305 154.04L108.525 193.847L97.4762 194.682Z" fill="#6C63FF"/>
<path d="M68.1797 189.918C68.1396 189.073 67.9148 188.247 67.521 187.499C67.1272 186.75 66.574 186.097 65.9004 185.585C65.2268 185.073 64.4492 184.715 63.6223 184.536C62.7954 184.357 61.9393 184.362 61.1144 184.55L53.4617 173.765L45.7734 176.817L56.7946 191.896C57.202 193.26 58.0959 194.428 59.3069 195.178C60.5179 195.928 61.9619 196.208 63.3653 195.964C64.7687 195.72 66.0339 194.97 66.9212 193.856C67.8085 192.742 68.2563 191.341 68.1797 189.918Z" fill="#FFB8B8"/>
<path d="M53.2645 189.119L30.1084 159.079L38.7848 131.81C39.4206 124.955 43.7106 123.04 43.8931 122.962L44.1716 122.843L51.7216 142.977L46.1781 157.759L59.7845 180.643L53.2645 189.119Z" fill="#6C63FF"/>
<path d="M77.7187 100.492C84.6023 96.7295 87.1321 88.0987 83.3692 81.2151C79.6063 74.3314 70.9755 71.8016 64.0919 75.5645C57.2082 79.3275 54.6784 87.9582 58.4413 94.8419C62.2043 101.726 70.835 104.255 77.7187 100.492Z" fill="#FFB8B8"/>
<path d="M80.4422 81.1096C78.9718 82.8497 76.4833 83.3407 74.1877 83.5421C69.5258 83.9509 62.7468 83.2877 58.1909 82.2358C57.8657 85.3874 58.7523 88.7856 56.896 91.3782C56.0258 88.2395 55.5198 85.0111 55.388 81.7568C55.3317 80.3611 55.3537 78.9172 55.921 77.636C56.4882 76.3547 57.7251 75.2671 59.1495 75.2557C58.0913 74.4529 56.8517 73.9229 55.5401 73.7126L60.0504 71.446L58.8922 70.2569L67.0578 69.7572L64.6927 68.2547C68.2524 67.7656 71.8535 67.6519 75.4369 67.9156C77.1009 68.0382 78.8406 68.2724 80.1888 69.2365C81.5371 70.2006 82.3161 72.1168 81.4791 73.5323C82.527 73.7044 83.5136 74.1411 84.3454 74.8011C85.1773 75.4612 85.8269 76.3227 86.2326 77.304C86.8337 78.8278 86.7786 80.5203 86.5935 82.1441C86.2858 84.7411 85.6823 87.2944 84.7946 89.7543" fill="#2F2E41"/>
<path d="M178.558 300H0.46743C0.34346 300 0.224567 299.951 0.136907 299.863C0.0492466 299.775 0 299.657 0 299.533C0 299.409 0.0492466 299.29 0.136907 299.202C0.224567 299.114 0.34346 299.065 0.46743 299.065H178.558C178.682 299.065 178.801 299.114 178.889 299.202C178.977 299.29 179.026 299.409 179.026 299.533C179.026 299.657 178.977 299.775 178.889 299.863C178.801 299.951 178.682 300 178.558 300Z" fill="#CCCCCC"/>
</g>
<defs>
<clipPath id="clip0_416_1720">
<rect width="383.092" height="300" fill="white"/>
</clipPath>
</defs>
</svg>
